<svg width="170" height="170" viewBox="0 0 170 170" fill="none" xmlns="http://www.w3.org/2000/svg">
<g opacity="0.5">
<path d="M132.857 28.9C133.796 28.9 134.557 28.1389 134.557 27.2C134.557 26.2611 133.796 25.5 132.857 25.5C131.918 25.5 131.157 26.2611 131.157 27.2C131.157 28.1389 131.918 28.9 132.857 28.9Z" fill="white"/>
<path d="M85.2567 153C120.934 153 149.857 124.078 149.857 88.4C149.857 52.7225 120.934 23.8 85.2567 23.8C49.5791 23.8 20.6567 52.7225 20.6567 88.4C20.6567 124.078 49.5791 153 85.2567 153Z" fill="white" fill-opacity="0.1"/>
<path d="M143.056 37.4001C146.812 37.4001 149.856 34.3556 149.856 30.6C149.856 26.8445 146.812 23.8 143.056 23.8C139.301 23.8 136.256 26.8445 136.256 30.6C136.256 34.3556 139.301 37.4001 143.056 37.4001Z" fill="white"/>
<path d="M24.0567 51C25.9345 51 27.4567 49.4777 27.4567 47.6C27.4567 45.7222 25.9345 44.2 24.0567 44.2C22.179 44.2 20.6567 45.7222 20.6567 47.6C20.6567 49.4777 22.179 51 24.0567 51Z" fill="white"/>
<path d="M132.857 137.7C134.734 137.7 136.257 136.178 136.257 134.3C136.257 132.422 134.734 130.9 132.857 130.9C130.979 130.9 129.457 132.422 129.457 134.3C129.457 136.178 130.979 137.7 132.857 137.7Z" fill="white"/>
<path d="M29.1564 142.8C32.912 142.8 35.9564 139.755 35.9564 136C35.9564 132.244 32.912 129.2 29.1564 129.2C25.4009 129.2 22.3564 132.244 22.3564 136C22.3564 139.755 25.4009 142.8 29.1564 142.8Z" fill="white"/>
<path d="M41.0567 147.9C42.9345 147.9 44.4567 146.378 44.4567 144.5C44.4567 142.622 42.9345 141.1 41.0567 141.1C39.179 141.1 37.6567 142.622 37.6567 144.5C37.6567 146.378 39.179 147.9 41.0567 147.9Z" fill="white"/>
<path d="M113.278 141.1C115.609 141.1 117.499 139.21 117.499 136.879C117.499 134.548 115.609 132.658 113.278 132.658C110.946 132.658 109.057 134.548 109.057 136.879C109.057 139.21 110.946 141.1 113.278 141.1Z" fill="white"/>
<path d="M27.4563 86.7C28.3952 86.7 29.1563 85.9389 29.1563 85C29.1563 84.0612 28.3952 83.3 27.4563 83.3C26.5175 83.3 25.7563 84.0612 25.7563 85C25.7563 85.9389 26.5175 86.7 27.4563 86.7Z" fill="white"/>
<path d="M146.456 57.7999C147.395 57.7999 148.156 57.0388 148.156 56.0999C148.156 55.161 147.395 54.3999 146.456 54.3999C145.517 54.3999 144.756 55.161 144.756 56.0999C144.756 57.0388 145.517 57.7999 146.456 57.7999Z" fill="white"/>
<path d="M136.256 119C138.134 119 139.656 117.478 139.656 115.6C139.656 113.722 138.134 112.2 136.256 112.2C134.379 112.2 132.856 113.722 132.856 115.6C132.856 117.478 134.379 119 136.256 119Z" fill="white"/>
<path d="M58.3505 85.8107L53.7095 75.4169L74.509 63.3333L80.5525 82.4294L58.3505 85.8107Z" fill="#9AA2AB"/>
<path d="M53.166 77.6794L41.844 81.4534C41.0303 81.7246 40.3492 82.2933 39.9371 83.0456C39.5251 83.7978 39.4125 84.6779 39.6221 85.5096L39.668 85.6932C39.7817 86.1475 39.988 86.5734 40.274 86.9443C40.56 87.3151 40.9195 87.6228 41.33 87.8482C41.7405 88.0735 42.1932 88.2117 42.6596 88.2539C43.126 88.2961 43.5961 88.2416 44.0404 88.0936L55.8571 84.1496L53.166 77.6794Z" fill="#9AA2AB"/>
<path d="M57.1345 74.0117L53.4556 75.248L57.3697 86.8956L61.0487 85.6592L57.1345 74.0117Z" fill="#9AA2AB"/>
<path d="M126.907 64.5999C126.907 50.1499 115.401 46.3232 115.401 46.3232C115.28 45.8281 115.05 45.3665 114.727 44.9724C114.404 44.5783 113.997 44.2619 113.535 44.0464C113.073 43.831 112.569 43.7221 112.06 43.7277C111.55 43.7334 111.048 43.8535 110.592 44.0792L74.2065 62.0499L81.0065 84.1499L119.663 80.2093C120.146 80.1601 120.613 80.008 121.033 79.7631C121.452 79.5183 121.814 79.1864 122.095 78.7898C122.375 78.3932 122.567 77.9412 122.658 77.4641C122.749 76.9869 122.737 76.4959 122.623 76.0239C124.066 74.5043 125.189 72.7098 125.925 70.7472C126.661 68.7846 126.995 66.694 126.907 64.5999Z" fill="#9AA2AB"/>
<path d="M121.708 77.3092L121.5 76.5L113.918 46.886C120.81 45.1214 124.441 51.2312 126.206 58.1213L126.113 58.4426C127.877 65.3327 127.313 73.2207 121.708 77.3092Z" fill="#9AA2AB"/>
<path d="M122.453 79.3763L117.111 80.7227L107.287 45.9747L113.637 44.375L122.453 79.3763Z" fill="#9AA2AB"/>
<path d="M86.1065 82.9715L81.7103 85.1254L74.2065 62.0496L79.451 60.3972L86.1065 82.9715Z" fill="#9AA2AB"/>
<path d="M69.3415 92.4083C73.097 92.4083 76.1415 89.3639 76.1415 85.6083C76.1415 81.8528 73.097 78.8083 69.3415 78.8083C65.586 78.8083 62.5415 81.8528 62.5415 85.6083C62.5415 89.3639 65.586 92.4083 69.3415 92.4083Z" fill="#9AA2AB"/>
<path d="M69.3414 89.2499C71.2192 89.2499 72.7414 87.7277 72.7414 85.8499C72.7414 83.9722 71.2192 82.45 69.3414 82.45C67.4636 82.45 65.9414 83.9722 65.9414 85.8499C65.9414 87.7277 67.4636 89.2499 69.3414 89.2499Z" fill="#9AA2AB"/>
<path d="M90.5792 126.754L73.3565 101.15C74.0328 101.15 74.6814 100.881 75.1596 100.403C75.6379 99.9248 75.9065 99.2762 75.9065 98.5999C75.9065 97.9236 75.6379 97.275 75.1596 96.7968C74.6814 96.3186 74.0328 96.0499 73.3565 96.0499L72.5065 92.6499H65.7065L64.8565 96.0499C64.1802 96.0499 63.5316 96.3186 63.0534 96.7968C62.5752 97.275 62.3065 97.9236 62.3065 98.5999C62.3065 99.2762 62.5752 99.9248 63.0534 100.403C63.5316 100.881 64.1802 101.15 64.8565 101.15L47.6338 126.754C47.4134 127.066 47.2829 127.433 47.2565 127.815C47.2301 128.196 47.3088 128.577 47.4841 128.917C47.6593 129.257 47.9245 129.543 48.2506 129.742C48.5767 129.942 48.9514 130.048 49.3338 130.05H49.3525C49.6772 130.05 49.9974 129.975 50.2877 129.829C50.5781 129.684 50.8306 129.473 51.0253 129.214L65.7065 109.65V126.65C65.7065 127.552 66.0647 128.416 66.7024 129.054C67.34 129.692 68.2048 130.05 69.1065 130.05C70.0083 130.05 70.8731 129.692 71.5107 129.054C72.1483 128.416 72.5065 127.552 72.5065 126.65V109.65L87.1792 129.214C87.3739 129.473 87.6264 129.684 87.9168 129.829C88.2072 129.975 88.5274 130.05 88.852 130.05H88.8707C89.2538 130.05 89.6296 129.945 89.957 129.746C90.2843 129.546 90.5507 129.261 90.727 128.921C90.9033 128.581 90.9828 128.199 90.9567 127.817C90.9306 127.434 90.8001 127.067 90.5792 126.754Z" fill="#9AA2AB"/>
<path d="M73.2906 96.8215H64.9215C63.9423 96.8215 63.1484 97.6154 63.1484 98.5946C63.1484 99.5739 63.9423 100.368 64.9215 100.368H73.2906C74.2699 100.368 75.0637 99.5739 75.0637 98.5946C75.0637 97.6154 74.2699 96.8215 73.2906 96.8215Z" fill="#9AA2AB"/>
<path d="M110.876 57.543C110.783 57.5428 110.693 57.5125 110.62 57.4567C110.546 57.4008 110.493 57.3225 110.468 57.2336L109.935 55.3636C109.919 55.3095 109.913 55.2525 109.919 55.1961C109.924 55.1398 109.941 55.0851 109.968 55.0353C109.995 54.9855 110.032 54.9416 110.076 54.9062C110.12 54.8709 110.171 54.8447 110.226 54.8293C110.28 54.8138 110.337 54.8095 110.394 54.8165C110.45 54.8234 110.504 54.8415 110.553 54.8698C110.602 54.898 110.645 54.9358 110.68 54.9809C110.714 55.026 110.739 55.0775 110.753 55.1324L111.285 57.0024C111.316 57.1108 111.302 57.2269 111.247 57.3253C111.192 57.4237 111.101 57.4965 110.993 57.5277C110.955 57.5386 110.915 57.5438 110.876 57.543Z" fill="white"/>
<path d="M109.281 51.9297C109.188 51.9296 109.098 51.8993 109.024 51.8435C108.951 51.7877 108.897 51.7094 108.871 51.6203L108.341 49.7503C108.326 49.6966 108.321 49.6404 108.328 49.585C108.334 49.5295 108.351 49.4759 108.378 49.4271C108.406 49.3783 108.442 49.3354 108.486 49.3007C108.53 49.266 108.58 49.2403 108.633 49.225C108.687 49.2097 108.743 49.2051 108.799 49.2116C108.854 49.218 108.908 49.2353 108.957 49.2624C109.005 49.2896 109.048 49.3261 109.083 49.3698C109.118 49.4136 109.143 49.4637 109.159 49.5174L109.691 51.3874C109.721 51.496 109.707 51.6121 109.652 51.7104C109.597 51.8087 109.505 51.8814 109.397 51.9127C109.359 51.9233 109.32 51.929 109.281 51.9297Z" fill="white"/>
<path d="M81.9756 71.1431C81.8832 71.1429 81.7934 71.1126 81.7198 71.0568C81.6462 71.0009 81.5927 70.9226 81.5676 70.8337L81.0355 68.9637C81.0188 68.9096 81.0131 68.8526 81.0187 68.7962C81.0243 68.7398 81.0411 68.6852 81.0682 68.6354C81.0953 68.5856 81.132 68.5417 81.1763 68.5063C81.2205 68.4709 81.2714 68.4448 81.326 68.4294C81.3805 68.4139 81.4376 68.4096 81.4938 68.4165C81.55 68.4235 81.6043 68.4416 81.6534 68.4699C81.7026 68.4981 81.7455 68.5359 81.7799 68.581C81.8142 68.6261 81.8391 68.6776 81.8532 68.7325L82.3853 70.6025C82.4158 70.7109 82.4021 70.827 82.3473 70.9254C82.2926 71.0238 82.2011 71.0966 82.0929 71.1278C82.0548 71.1387 82.0153 71.1439 81.9756 71.1431Z" fill="white"/>
<path d="M80.3812 65.5296C80.2885 65.5294 80.1985 65.4992 80.1246 65.4434C80.0507 65.3875 79.9969 65.3092 79.9715 65.2202L79.4411 63.3502C79.4102 63.2417 79.4236 63.1255 79.4785 63.0269C79.5333 62.9284 79.625 62.8557 79.7335 62.8249C79.8419 62.794 79.9582 62.8074 80.0567 62.8623C80.1552 62.9171 80.2279 63.0088 80.2588 63.1173L80.7909 64.9873C80.8208 65.0959 80.8067 65.2119 80.7516 65.3103C80.6966 65.4086 80.605 65.4813 80.4968 65.5126C80.4591 65.5231 80.4203 65.5288 80.3812 65.5296Z" fill="white"/>
<path d="M69.107 89.6749C68.3504 89.6752 67.6107 89.4512 66.9815 89.0311C66.3522 88.611 65.8617 88.0137 65.5719 87.3148C65.2822 86.6159 65.2062 85.8468 65.3536 85.1047C65.501 84.3626 65.8651 83.6809 66.4 83.1458C66.9349 82.6107 67.6164 82.2463 68.3584 82.0985C69.1004 81.9508 69.8696 82.0264 70.5686 82.3159C71.2677 82.6054 71.8652 83.0956 72.2855 83.7247C72.7059 84.3537 72.9303 85.0933 72.9303 85.8499C72.9289 86.8636 72.5257 87.8355 71.8091 88.5525C71.0924 89.2695 70.1207 89.6731 69.107 89.6749ZM69.107 82.8749C68.5185 82.8746 67.9431 83.0488 67.4537 83.3755C66.9642 83.7021 66.5826 84.1667 66.3572 84.7102C66.1318 85.2538 66.0726 85.852 66.1872 86.4292C66.3018 87.0065 66.585 87.5367 67.001 87.9529C67.417 88.3692 67.9471 88.6527 68.5243 88.7676C69.1014 88.8825 69.6997 88.8237 70.2434 88.5986C70.7871 88.3735 71.2518 87.9922 71.5788 87.5029C71.9058 87.0136 72.0803 86.4384 72.0803 85.8499C72.0794 85.0615 71.7659 84.3055 71.2085 83.7479C70.6512 83.1902 69.8954 82.8762 69.107 82.8749Z" fill="white"/>
<path d="M116.362 45.4289C116.127 44.8412 115.774 44.3082 115.323 43.8636C114.873 43.419 114.336 43.0723 113.745 42.8453C113.154 42.6183 112.523 42.5159 111.891 42.5445C111.259 42.5731 110.64 42.7321 110.072 43.0115L73.6918 60.9839C73.4093 61.1239 73.1938 61.3702 73.0928 61.6689C72.9917 61.9675 73.0134 62.2941 73.1529 62.5768C73.2617 62.7995 73.43 63.2432 73.4266 63.2466L53.1371 74.3748C52.9335 74.4935 52.771 74.6714 52.6713 74.8848C52.5747 74.9976 52.5098 75.1339 52.4832 75.28C52.4566 75.4261 52.4693 75.5766 52.52 75.7161L52.8141 76.5066C52.69 76.5066 41.1181 80.3265 41.1181 80.3265C40.0238 80.6961 39.1081 81.463 38.5521 82.4754C37.9962 83.4878 37.8405 84.672 38.1159 85.7937L38.1618 85.979C38.3153 86.5924 38.5939 87.1675 38.9801 87.6682C39.3663 88.1689 39.8518 88.5844 40.4061 88.8886C40.9605 89.1928 41.5717 89.3792 42.2015 89.4361C42.8313 89.493 43.466 89.4192 44.0659 89.2192C44.0659 89.2192 55.9931 85.214 56.0509 85.1834L56.4113 86.149C56.4351 86.2153 56.4963 86.251 56.5354 86.3088C56.6296 86.5142 56.7804 86.6885 56.97 86.8113C57.1597 86.9341 57.3804 87.0004 57.6064 87.0024C57.6449 87.0024 57.684 87.0024 57.7237 87.0024L61.1985 86.6624C61.3175 87.7974 61.6784 88.8936 62.2566 89.8774C62.8349 90.8613 63.6172 91.7098 64.5509 92.3659L63.8964 94.9873C63.1827 95.177 62.5411 95.5737 62.0525 96.1275C61.5639 96.6813 61.2502 97.3673 61.151 98.0991C61.0517 98.8309 61.1713 99.5757 61.4947 100.24C61.8181 100.904 62.3308 101.457 62.9682 101.83L46.6618 126.065C46.1693 126.772 45.9739 127.644 46.1174 128.493C46.261 129.343 46.732 130.102 47.4294 130.608C48.1268 131.114 48.9947 131.326 49.8468 131.199C50.6989 131.071 51.467 130.615 51.9862 129.927L64.5169 113.22V126.65C64.5169 127.867 65.0005 129.035 65.8612 129.895C66.722 130.756 67.8895 131.24 69.1069 131.24C70.3242 131.24 71.4917 130.756 72.3525 129.895C73.2133 129.035 73.6969 127.867 73.6969 126.65V113.22L86.2276 129.927C86.5366 130.336 86.9362 130.667 87.3949 130.895C87.8537 131.122 88.3589 131.24 88.8711 131.24C89.4701 131.24 90.0577 131.076 90.5702 130.766C91.0826 130.456 91.5004 130.011 91.7782 129.48C92.056 128.95 92.1832 128.353 92.146 127.755C92.1088 127.157 91.9087 126.581 91.5673 126.089L75.2456 101.83C75.883 101.457 76.3957 100.904 76.7191 100.24C77.0424 99.5757 77.1621 98.8309 77.0628 98.0991C76.9635 97.3673 76.6498 96.6813 76.1612 96.1275C75.6727 95.5737 75.0311 95.177 74.3174 94.9873L73.6697 92.3965C74.7265 91.6625 75.5902 90.6838 76.1869 89.5439C76.7837 88.4039 77.0959 87.1365 77.0969 85.8498C77.0969 85.6033 77.0459 85.3704 77.0238 85.129L80.0566 84.8349C80.1624 84.9896 80.3037 85.1167 80.4688 85.2054C80.6338 85.2942 80.8178 85.342 81.0052 85.3449C81.0459 85.3475 81.0868 85.3475 81.1276 85.3449L119.784 81.4043C120.982 81.282 122.084 80.6936 122.853 79.7659C123.621 78.8382 123.994 77.6456 123.891 76.4454C126.727 73.1629 128.228 68.9357 128.097 64.5998C128.097 51.3959 118.811 46.4914 116.362 45.4289ZM55.1312 83.021L43.3145 86.9599C43.0256 87.0564 42.72 87.0922 42.4166 87.065C42.1133 87.0378 41.8189 86.9482 41.5519 86.8018C41.2848 86.6554 41.0509 86.4554 40.8648 86.2144C40.6787 85.9733 40.5444 85.6964 40.4704 85.401L40.4245 85.2157C40.2922 84.6758 40.3672 84.1059 40.6347 83.6187C40.9023 83.1314 41.3429 82.7622 41.8695 82.5841C41.8695 82.5841 53.4754 78.6741 53.5893 78.5806L55.24 83.0006C55.2026 83.0159 55.1669 83.0091 55.1312 83.021ZM57.6523 84.6105L54.5549 76.3111L57.1049 74.9154L60.4539 84.3402L57.6523 84.6105ZM89.6123 127.44C89.7096 127.574 89.7673 127.733 89.7788 127.898C89.7902 128.063 89.7549 128.228 89.6769 128.374C89.6003 128.524 89.4827 128.649 89.3376 128.735C89.1926 128.822 89.0261 128.865 88.8575 128.86C88.7176 128.86 88.5797 128.827 88.4546 128.765C88.3295 128.702 88.2207 128.611 88.1367 128.499L71.3169 106.08V126.65C71.3169 127.236 71.084 127.798 70.6696 128.213C70.2551 128.627 69.693 128.86 69.1069 128.86C68.5207 128.86 67.9586 128.627 67.5442 128.213C67.1297 127.798 66.8969 127.236 66.8969 126.65V106.08L50.0839 128.499C49.9969 128.613 49.8846 128.705 49.7559 128.767C49.6272 128.83 49.4857 128.862 49.3427 128.86C49.177 128.862 49.0141 128.818 48.8725 128.732C48.7309 128.646 48.6163 128.522 48.542 128.374C48.4633 128.223 48.429 128.053 48.4431 127.883C48.4573 127.714 48.5193 127.552 48.6219 127.417L66.5314 100.791H71.6824L89.6123 127.44ZM74.7169 98.5998C74.7169 98.9605 74.5736 99.3064 74.3185 99.5615C74.0635 99.8165 73.7176 99.9598 73.3569 99.9598H73.2107C73.1937 99.9598 73.1835 99.9411 73.1665 99.9411H65.5165C65.4995 99.9411 65.4893 99.9581 65.4723 99.9598H64.8569C64.4962 99.9598 64.1503 99.8165 63.8952 99.5615C63.6402 99.3064 63.4969 98.9605 63.4969 98.5998C63.4969 98.2391 63.6402 97.8932 63.8952 97.6382C64.1503 97.3831 64.4962 97.2398 64.8569 97.2398H65.6066H65.6236H73.3569H73.3671C73.726 97.2425 74.0693 97.387 74.3222 97.6417C74.575 97.8965 74.7169 98.2409 74.7169 98.5998ZM72.2162 96.3898H65.9959L66.7354 93.4369C68.2719 93.9673 69.9419 93.9673 71.4784 93.4369L72.2162 96.3898ZM69.1069 91.4598C67.9973 91.4598 66.9127 91.1308 65.9901 90.5144C65.0676 89.8979 64.3485 89.0218 63.9239 87.9967C63.4993 86.9716 63.3882 85.8436 63.6047 84.7554C63.8211 83.6671 64.3554 82.6675 65.14 81.8829C65.9246 81.0984 66.9242 80.5641 68.0124 80.3476C69.1006 80.1311 70.2286 80.2422 71.2537 80.6669C72.2788 81.0915 73.155 81.8105 73.7714 82.7331C74.3878 83.6556 74.7169 84.7403 74.7169 85.8498C74.7169 87.3377 74.1258 88.7646 73.0737 89.8167C72.0217 90.8688 70.5947 91.4598 69.1069 91.4598ZM76.4832 82.7898C75.8276 81.2189 74.6874 79.8985 73.2289 79.0209C71.7704 78.1433 70.0698 77.7545 68.3748 77.911C66.6798 78.0675 65.0791 78.7613 63.806 79.8912C62.5329 81.021 61.6539 82.528 61.2971 84.1923L57.8529 74.5023L74.3616 65.4413L79.6061 82.4872L76.4832 82.7898ZM119.542 79.026L117.62 79.2215L112.37 60.7391C112.337 60.6331 112.265 60.5441 112.167 60.4911C112.07 60.4381 111.955 60.4253 111.848 60.4555C111.742 60.4857 111.651 60.5565 111.596 60.6527C111.54 60.7488 111.525 60.8629 111.552 60.9703L116.765 79.3099L86.0202 82.4498L83.4702 74.334C83.4534 74.2808 83.4264 74.2313 83.3905 74.1886C83.3547 74.1458 83.3107 74.1105 83.2613 74.0847C83.2118 74.0589 83.1577 74.043 83.1021 74.0381C83.0465 74.0332 82.9905 74.0393 82.9372 74.0561C82.884 74.0728 82.8346 74.0999 82.7918 74.1357C82.749 74.1716 82.7137 74.2155 82.6879 74.265C82.6621 74.3145 82.6462 74.3686 82.6413 74.4242C82.6364 74.4797 82.6425 74.5358 82.6593 74.589L85.16 82.5382L81.5186 82.9088L75.334 62.8199L111.119 45.1399C111.537 44.9349 112.01 44.8688 112.469 44.9512C112.456 45.0504 112.46 45.1511 112.482 45.2487L120.787 78.4684C120.441 78.7808 120.006 78.976 119.542 79.026ZM121.836 75.1296C121.79 75.1704 121.778 75.2316 121.739 75.2775L114.737 47.2598C114.822 47.3353 114.918 47.3977 115.022 47.4451C115.459 47.593 125.717 51.2191 125.717 64.593C125.809 66.5198 125.513 68.4454 124.846 70.2555C124.18 72.0655 123.156 73.7231 121.836 75.1296Z" fill="white"/>
</g>
</svg>
