<svg width="16" height="16" viewBox="0 0 16 16" fill="none" xmlns="http://www.w3.org/2000/svg">
<path d="M2.375 0.5C1.34687 0.5 0.5 1.34687 0.5 2.375V3.625C0.5 4.65313 1.34687 5.5 2.375 5.5H5.70833C6.73646 5.5 7.58333 4.65313 7.58333 3.625V2.375C7.58333 1.34687 6.73646 0.5 5.70833 0.5H2.375ZM10.2917 0.5C9.26354 0.5 8.41667 1.34687 8.41667 2.375V7.79167C8.41667 8.81979 9.26354 9.66667 10.2917 9.66667H13.625C14.6531 9.66667 15.5 8.81979 15.5 7.79167V2.375C15.5 1.34687 14.6531 0.5 13.625 0.5H10.2917ZM2.375 1.75H5.70833C6.06104 1.75 6.33333 2.02229 6.33333 2.375V3.625C6.33333 3.97771 6.06104 4.25 5.70833 4.25H2.375C2.02229 4.25 1.75 3.97771 1.75 3.625V2.375C1.75 2.02229 2.02229 1.75 2.375 1.75ZM10.2917 1.75H13.625C13.9777 1.75 14.25 2.02229 14.25 2.375V7.79167C14.25 8.14437 13.9777 8.41667 13.625 8.41667H10.2917C9.93896 8.41667 9.66667 8.14437 9.66667 7.79167V2.375C9.66667 2.02229 9.93896 1.75 10.2917 1.75ZM2.375 6.33333C1.34687 6.33333 0.5 7.18021 0.5 8.20833V13.625C0.5 14.6531 1.34687 15.5 2.375 15.5H5.70833C6.73646 15.5 7.58333 14.6531 7.58333 13.625V8.20833C7.58333 7.18021 6.73646 6.33333 5.70833 6.33333H2.375ZM2.375 7.58333H5.70833C6.06104 7.58333 6.33333 7.85563 6.33333 8.20833V13.625C6.33333 13.9777 6.06104 14.25 5.70833 14.25H2.375C2.02229 14.25 1.75 13.9777 1.75 13.625V8.20833C1.75 7.85563 2.02229 7.58333 2.375 7.58333ZM10.2917 10.5C9.26354 10.5 8.41667 11.3469 8.41667 12.375V13.625C8.41667 14.6531 9.26354 15.5 10.2917 15.5H13.625C14.6531 15.5 15.5 14.6531 15.5 13.625V12.375C15.5 11.3469 14.6531 10.5 13.625 10.5H10.2917ZM10.2917 11.75H13.625C13.9777 11.75 14.25 12.0223 14.25 12.375V13.625C14.25 13.9777 13.9777 14.25 13.625 14.25H10.2917C9.93896 14.25 9.66667 13.9777 9.66667 13.625V12.375C9.66667 12.0223 9.93896 11.75 10.2917 11.75Z" fill="white"/>
</svg>
