<svg width="14" height="18" viewBox="0 0 14 18" fill="none" xmlns="http://www.w3.org/2000/svg">
<path d="M2.20837 0.666687C1.18025 0.666687 0.333374 1.51356 0.333374 2.54169V15.4584C0.333374 16.4865 1.18025 17.3334 2.20837 17.3334H11.7917C12.8198 17.3334 13.6667 16.4865 13.6667 15.4584V6.70835C13.6667 6.5426 13.6008 6.38365 13.4836 6.26646L13.4771 6.25995L8.06693 0.849792C7.94974 0.732582 7.79079 0.666719 7.62504 0.666687H2.20837ZM2.20837 1.91669H7.00004V5.45835C7.00004 6.48648 7.84691 7.33335 8.87504 7.33335H12.4167V15.4584C12.4167 15.8111 12.1444 16.0834 11.7917 16.0834H2.20837C1.85567 16.0834 1.58337 15.8111 1.58337 15.4584V2.54169C1.58337 2.18898 1.85567 1.91669 2.20837 1.91669ZM8.25004 2.80048L11.5329 6.08335H8.87504C8.52233 6.08335 8.25004 5.81106 8.25004 5.45835V2.80048ZM4.29171 9.41669C4.20889 9.41552 4.12666 9.43082 4.04981 9.4617C3.97295 9.49258 3.903 9.53843 3.84402 9.59659C3.78504 9.65474 3.7382 9.72404 3.70623 9.80045C3.67427 9.87686 3.65781 9.95886 3.65781 10.0417C3.65781 10.1245 3.67427 10.2065 3.70623 10.2829C3.7382 10.3593 3.78504 10.4286 3.84402 10.4868C3.903 10.5449 3.97295 10.5908 4.04981 10.6217C4.12666 10.6526 4.20889 10.6679 4.29171 10.6667H9.70837C9.79119 10.6679 9.87342 10.6526 9.95028 10.6217C10.0271 10.5908 10.0971 10.5449 10.1561 10.4868C10.215 10.4286 10.2619 10.3593 10.2938 10.2829C10.3258 10.2065 10.3423 10.1245 10.3423 10.0417C10.3423 9.95886 10.3258 9.87686 10.2938 9.80045C10.2619 9.72404 10.215 9.65474 10.1561 9.59659C10.0971 9.53843 10.0271 9.49258 9.95028 9.4617C9.87342 9.43082 9.79119 9.41552 9.70837 9.41669H4.29171ZM4.29171 12.3334C4.20889 12.3322 4.12666 12.3475 4.04981 12.3784C3.97295 12.4093 3.903 12.4551 3.84402 12.5133C3.78504 12.5714 3.7382 12.6407 3.70623 12.7171C3.67427 12.7935 3.65781 12.8755 3.65781 12.9584C3.65781 13.0412 3.67427 13.1232 3.70623 13.1996C3.7382 13.276 3.78504 13.3453 3.84402 13.4035C3.903 13.4616 3.97295 13.5075 4.04981 13.5383C4.12666 13.5692 4.20889 13.5845 4.29171 13.5834H8.04171C8.12453 13.5845 8.20675 13.5692 8.28361 13.5383C8.36046 13.5075 8.43041 13.4616 8.4894 13.4035C8.54838 13.3453 8.59521 13.276 8.62718 13.1996C8.65915 13.1232 8.67561 13.0412 8.67561 12.9584C8.67561 12.8755 8.65915 12.7935 8.62718 12.7171C8.59521 12.6407 8.54838 12.5714 8.4894 12.5133C8.43041 12.4551 8.36046 12.4093 8.28361 12.3784C8.20675 12.3475 8.12453 12.3322 8.04171 12.3334H4.29171Z" fill="white"/>
</svg>
