<svg width="17" height="20" viewBox="0 0 17 20" fill="none" xmlns="http://www.w3.org/2000/svg">
<path d="M9.90511 0.83086C9.8277 0.828035 9.75043 0.839625 9.67725 0.86504L5.0573 2.40394C5.05294 2.40552 5.0486 2.40715 5.04427 2.40882C4.411 2.63594 3.85947 3.04735 3.46224 3.59046C3.45808 3.59609 3.45401 3.60179 3.45004 3.60755L1.38298 6.64141C1.07622 7.09154 0.911682 7.62454 0.912601 8.16973L0.917484 12.4056C0.917845 13.4808 1.61952 14.3997 2.59066 14.7273C2.66784 17.1758 4.67892 19.1563 7.14795 19.1666C9.6715 19.1767 11.7394 17.126 11.75 14.602C11.7515 14.2282 11.7065 13.8643 11.623 13.5148L13.9497 12.0971C14.5685 11.7197 15.0409 11.139 15.277 10.4484C15.6906 9.23857 16.3333 6.96202 16.3333 4.37497C16.3345 4.29132 16.3189 4.20827 16.2874 4.13076C16.256 4.05325 16.2092 3.98285 16.15 3.92373C16.0908 3.86461 16.0204 3.81798 15.9428 3.78659C15.8653 3.75521 15.7822 3.73971 15.6986 3.74102C15.533 3.7436 15.3751 3.81182 15.2598 3.93069C15.1444 4.04955 15.081 4.20935 15.0833 4.37497C15.0833 6.75292 14.4801 8.91622 14.0946 10.0439C13.954 10.455 13.6732 10.801 13.2987 11.0294L8.98877 13.6564C8.9855 13.6585 8.98224 13.6607 8.97901 13.6629C8.79255 13.7813 8.5595 13.7573 8.39307 13.6141C7.89804 13.0988 7.8988 12.301 8.40039 11.7895L10.6766 10.0089C10.7514 9.95046 10.8118 9.87575 10.8534 9.79044C10.895 9.70514 10.9167 9.61148 10.9167 9.51657C10.9167 8.17419 10.2557 7.03179 9.27198 6.4168C8.28826 5.80181 6.96319 5.73666 5.80518 6.44691C5.01824 6.93021 4.62033 7.49664 4.01644 8.09974C3.89923 8.21693 3.83337 8.37589 3.83334 8.54163V11.451C3.3168 12.0002 2.93504 12.6749 2.73796 13.4253C2.39656 13.2147 2.16748 12.8418 2.16748 12.4048C2.16748 12.4045 2.16748 12.4042 2.16748 12.4039L2.1626 8.1681C2.16202 7.87524 2.2501 7.58833 2.41569 7.34535L4.47136 4.32858L4.47217 4.32777C4.72156 3.98718 5.0678 3.72833 5.46582 3.58558L10.0728 2.05156C10.2134 2.00711 10.3337 1.91437 10.4126 1.78975C10.4914 1.66512 10.5236 1.51663 10.5036 1.37053C10.4835 1.22444 10.4124 1.09014 10.3029 0.991378C10.1934 0.892619 10.0525 0.835763 9.90511 0.83086ZM7.59961 7.17038C7.96293 7.17391 8.30437 7.28558 8.60954 7.47637C9.15641 7.81825 9.52342 8.46271 9.60401 9.26104L8.4305 10.1798C8.03379 10.066 7.61639 10.0016 7.18539 9.99997C6.42879 9.99694 5.71486 10.1823 5.08334 10.507V8.811C5.61149 8.26194 5.95828 7.81961 6.45866 7.51218C6.85112 7.27147 7.2363 7.16685 7.59961 7.17038ZM7.1805 11.25C7.19668 11.25 7.21241 11.2521 7.22852 11.2524C6.5423 12.2495 6.63965 13.6364 7.52393 14.5206C7.53186 14.5285 7.54 14.536 7.54834 14.5434C8.12814 15.0643 8.99165 15.1355 9.64958 14.7176L10.4731 14.2155C10.487 14.3413 10.5005 14.4673 10.5 14.5971C10.4923 16.4456 9.00095 17.924 7.15284 17.9166C5.30433 17.9089 3.82594 16.4176 3.83334 14.5695C3.84109 12.721 5.33239 11.2426 7.1805 11.25Z" fill="white"/>
</svg>
