<svg data-v-223915df="" width="161" height="17" viewBox="0 0 161 17" fill="none" xmlns="http://www.w3.org/2000/svg" class=""><path data-v-223915df="" d="M33.0806 11.2813H35.8626C35.9386 11.0746 36.0024 10.8617 36.0602 10.6459H33.2782C33.2204 10.8617 33.1566 11.0746 33.0806 11.2813Z" fill="#FFC51A"></path><path data-v-223915df="" d="M32.9651 5.52278C32.8769 5.30691 32.7796 5.09408 32.6763 4.88733C32.7796 5.09408 32.8769 5.30691 32.9651 5.52278Z" fill="#FFC51A"></path><path data-v-223915df="" d="M33.3967 10.129H36.1666C36.2091 9.92224 36.2396 9.70941 36.2639 9.49658H33.4849C33.4697 9.70941 33.4302 9.92224 33.3967 10.129Z" fill="#FFC51A"></path><path data-v-223915df="" d="M30.3198 2.0688C30.0088 1.83426 29.6817 1.62192 29.3408 1.43335C29.6817 1.62192 30.0088 1.83426 30.3198 2.0688Z" fill="#FFC51A"></path><path data-v-223915df="" d="M31.5512 3.22115C31.3594 2.99916 31.1564 2.78707 30.9431 2.58569C31.1564 2.78707 31.3594 2.99916 31.5512 3.22115Z" fill="#FFC51A"></path><path data-v-223915df="" d="M33.5183 7.82735H36.2973C36.276 7.61148 36.2487 7.40169 36.2152 7.19189H33.4302C33.4697 7.40169 33.4971 7.61148 33.5183 7.82735Z" fill="#FFC51A"></path><path data-v-223915df="" d="M31.5512 3.22115H34.3423C34.1505 2.99916 33.9476 2.78707 33.7342 2.58569H30.937C31.1524 2.78692 31.3574 2.99901 31.5512 3.22115Z" fill="#FFC51A"></path><path data-v-223915df="" d="M33.3299 6.67513H36.1089C36.0572 6.45926 35.9994 6.24946 35.9325 6.03967H33.1536C33.2205 6.24946 33.2782 6.45318 33.3299 6.67513Z" fill="#FFC51A"></path><path data-v-223915df="" d="M32.3934 4.37045C32.2597 4.15458 32.1198 3.94175 31.9678 3.73804C32.1198 3.94175 32.2597 4.15458 32.3934 4.37045Z" fill="#FFC51A"></path><path data-v-223915df="" d="M32.3934 4.37045H35.1724C35.0386 4.15458 34.8988 3.94175 34.7467 3.73804H31.9678C32.1198 3.94175 32.2597 4.15458 32.3934 4.37045Z" fill="#FFC51A"></path><path data-v-223915df="" d="M33.5519 8.55707C33.5519 8.69693 33.5519 8.83983 33.5519 8.97969H36.3309C36.3309 8.83983 36.3309 8.69693 36.3309 8.55707C36.3309 8.4841 36.3309 8.41417 36.3309 8.34424H33.5519C33.5488 8.41417 33.5519 8.4841 33.5519 8.55707Z" fill="#FFC51A"></path><path data-v-223915df="" d="M32.9649 5.52278H35.7439C35.6557 5.30691 35.5584 5.09408 35.4399 4.88733H32.6609C32.7795 5.09408 32.8768 5.30691 32.9649 5.52278Z" fill="#FFC51A"></path><path data-v-223915df="" d="M29.3407 1.43332L29.137 1.3269H24.4881C24.0232 1.56685 23.5823 1.85092 23.1716 2.17519H30.4687L30.3349 2.06877C30.019 1.83362 29.6868 1.62127 29.3407 1.43332Z" fill="#FFC51A"></path><path data-v-223915df="" d="M33.5183 7.82744C33.4971 7.61157 33.4697 7.40178 33.4362 7.19199C33.4362 7.1555 33.421 7.12206 33.415 7.08557H20.2103C20.1585 7.36615 20.122 7.64933 20.1008 7.93386H33.5244C33.5214 7.89737 33.5214 7.86393 33.5183 7.82744Z" fill="#FFC51A"></path><path data-v-223915df="" d="M33.5396 8.97978C33.5396 8.83992 33.5396 8.69702 33.5396 8.55716C33.5396 8.48419 33.5396 8.41426 33.5396 8.34433C33.5396 8.2744 33.5396 8.2744 33.5396 8.23792H20.0825C20.0825 8.34433 20.0825 8.45075 20.0825 8.54196C20.0825 8.71831 20.0825 8.89465 20.1038 9.071H33.5426C33.5335 9.04971 33.5396 9.01323 33.5396 8.97978Z" fill="#FFC51A"></path><path data-v-223915df="" d="M33.0806 11.2814C33.1566 11.0747 33.2205 10.8618 33.2782 10.646L33.3056 10.5396H20.3198C20.3919 10.8268 20.4791 11.1099 20.5813 11.3878H33.0472L33.0806 11.2814Z" fill="#FFC51A"></path><path data-v-223915df="" d="M33.3967 10.1291C33.4392 9.92234 33.4696 9.70951 33.494 9.49667C33.494 9.46019 33.494 9.4237 33.494 9.39026H20.116C20.1464 9.67606 20.192 9.95882 20.2497 10.2355H33.3754C33.3845 10.2021 33.3906 10.1656 33.3967 10.1291Z" fill="#FFC51A"></path><path data-v-223915df="" d="M33.3297 6.6751C33.278 6.45923 33.2203 6.24943 33.1534 6.03964L33.1169 5.93323H20.5082C20.4135 6.21139 20.3343 6.49459 20.271 6.78151H33.3449C33.348 6.75719 33.3389 6.71158 33.3297 6.6751Z" fill="#FFC51A"></path><path data-v-223915df="" d="M32.9651 5.52275C32.8769 5.30688 32.7796 5.09405 32.6762 4.8873L32.6215 4.78088H21.0039C20.8614 5.05672 20.7336 5.33987 20.6208 5.62917H33.0076C32.9916 5.59445 32.9774 5.55894 32.9651 5.52275Z" fill="#FFC51A"></path><path data-v-223915df="" d="M31.5512 3.22112C31.3594 2.99913 31.1565 2.78704 30.9431 2.58566L30.8245 2.47925H22.8069C22.511 2.74063 22.2356 3.02422 21.9829 3.32753H31.6424L31.5512 3.22112Z" fill="#FFC51A"></path><path data-v-223915df="" d="M32.3934 4.37042C32.2597 4.15455 32.1198 3.94172 31.9678 3.73801L31.8887 3.63159H21.7397C21.5332 3.90154 21.3433 4.18381 21.1711 4.47684H32.4543C32.4322 4.44241 32.4119 4.40689 32.3934 4.37042Z" fill="#FFC51A"></path><path data-v-223915df="" d="M25.1511 1.02292H28.4743L28.2189 0.922582H28.2037C27.7522 0.75956 27.2873 0.636457 26.8142 0.554688C26.245 0.65196 25.6875 0.808902 25.1511 1.02292Z" fill="#FFC51A"></path><path data-v-223915df="" d="M30.6938 14.7384H33.4728C33.7065 14.5392 33.9288 14.327 34.1387 14.1029H31.3627C31.1519 14.3271 30.9286 14.5392 30.6938 14.7384Z" fill="#FFC51A"></path><path data-v-223915df="" d="M32.5667 12.4337H35.3456C35.4581 12.2269 35.5615 12.0141 35.6497 11.7982H32.8707C32.7825 12.0141 32.6791 12.23 32.5667 12.4337Z" fill="#FFC51A"></path><path data-v-223915df="" d="M28.9333 15.8786C29.055 15.8178 29.1766 15.757 29.2982 15.6901C29.1735 15.7691 29.055 15.8299 28.9333 15.8786Z" fill="#FFC51A"></path><path data-v-223915df="" d="M31.8066 13.586H34.5856C34.7468 13.3823 34.8897 13.1695 35.0386 12.9506H32.2597C32.1168 13.1695 31.9678 13.3823 31.8066 13.586Z" fill="#FFC51A"></path><path data-v-223915df="" d="M30.6937 14.7383C30.9273 14.5391 31.1496 14.327 31.3595 14.1029C31.393 14.0664 31.4264 14.0329 31.4568 13.9965H22.1804C22.4552 14.3006 22.7519 14.5841 23.0682 14.8447H30.5721L30.6937 14.7383Z" fill="#FFC51A"></path><path data-v-223915df="" d="M28.9334 15.8786C29.055 15.8178 29.1766 15.7569 29.2982 15.6901C29.5472 15.5623 29.7897 15.4223 30.0249 15.2705L30.1769 15.1641H23.4514C23.913 15.4976 24.4083 15.7819 24.9291 16.0123H28.6962L28.9334 15.8786Z" fill="#FFC51A"></path><path data-v-223915df="" d="M31.8066 13.586C31.9678 13.3823 32.1107 13.1694 32.2597 12.9505L32.3265 12.8441H21.2988C21.4827 13.1399 21.6858 13.4233 21.9069 13.6924H31.7245L31.8066 13.586Z" fill="#FFC51A"></path><path data-v-223915df="" d="M32.5667 12.4336C32.6792 12.2269 32.7826 12.0141 32.8708 11.7982L32.9164 11.6918H20.7029C20.8245 11.9827 20.9636 12.2659 21.1194 12.5401H32.5181C32.5181 12.5036 32.5485 12.4701 32.5667 12.4336Z" fill="#FFC51A"></path><path data-v-223915df="" d="M29.2982 15.7022C29.1766 15.7691 29.055 15.8299 28.9333 15.8907H31.7123C32.0911 15.7057 32.456 15.4934 32.8038 15.2552H30.0249C29.7903 15.4164 29.5478 15.5655 29.2982 15.7022Z" fill="#FFC51A"></path><path data-v-223915df="" d="M33.0806 11.2813C33.1566 11.0746 33.2204 10.8617 33.2782 10.6459C33.2204 10.8617 33.1566 11.0746 33.0806 11.2813Z" fill="#FFC51A"></path><path data-v-223915df="" d="M33.5184 7.82735C33.4971 7.61148 33.4697 7.40169 33.4363 7.19189C33.4697 7.40169 33.4971 7.61148 33.5184 7.82735Z" fill="#FFC51A"></path><path data-v-223915df="" d="M27.8966 16.3011H25.7288C26.0845 16.4118 26.4471 16.4992 26.8142 16.5626C27.0574 16.5201 27.2946 16.4684 27.5317 16.4076L27.8966 16.3011Z" fill="#FFC51A"></path><path data-v-223915df="" d="M26.8142 16.5627C27.273 16.6434 27.7379 16.6841 28.2037 16.6843C28.9151 16.6841 29.6234 16.5911 30.3107 16.4076H27.5318C27.2946 16.4684 27.0453 16.5201 26.8142 16.5627Z" fill="#FFC51A"></path><path data-v-223915df="" d="M32.5667 12.4337C32.6791 12.2269 32.7825 12.0141 32.8707 11.7982C32.7825 12.0141 32.6791 12.23 32.5667 12.4337Z" fill="#FFC51A"></path><path data-v-223915df="" d="M33.3967 10.129C33.4393 9.92224 33.4697 9.70941 33.494 9.49658C33.4697 9.70941 33.4302 9.92224 33.3967 10.129Z" fill="#FFC51A"></path><path data-v-223915df="" d="M31.8066 13.586C31.9678 13.3823 32.1107 13.1695 32.2597 12.9506C32.1168 13.1695 31.9678 13.3823 31.8066 13.586Z" fill="#FFC51A"></path><path data-v-223915df="" d="M33.5519 8.55707C33.5519 8.69693 33.5519 8.83983 33.5519 8.97969C33.5519 8.83983 33.5519 8.69693 33.5519 8.55707C33.5519 8.4841 33.5519 8.41417 33.5519 8.34424C33.5488 8.41417 33.5519 8.4841 33.5519 8.55707Z" fill="#FFC51A"></path><path data-v-223915df="" d="M30.9978 0.916518C30.1073 0.591884 29.1667 0.426196 28.2188 0.427005C27.7531 0.428703 27.2883 0.469385 26.8293 0.548623C27.3024 0.630393 27.7673 0.753496 28.2188 0.916518H30.9978Z" fill="#FFC51A"></path><path data-v-223915df="" d="M30.6938 14.7384C30.9275 14.5392 31.1498 14.327 31.3597 14.1029C31.1498 14.327 30.9275 14.5392 30.6938 14.7384Z" fill="#FFC51A"></path><path data-v-223915df="" d="M30.3198 2.0688H33.0988C32.7878 1.83426 32.4607 1.62192 32.1198 1.43335H29.3408C29.6817 1.62192 30.0088 1.83426 30.3198 2.0688Z" fill="#FFC51A"></path><path data-v-223915df="" d="M33.3299 6.67513C33.2782 6.45926 33.2205 6.24946 33.1536 6.03967C33.2205 6.24946 33.2782 6.45318 33.3299 6.67513Z" fill="#FFC51A"></path><path data-v-223915df="" d="M29.2983 15.7021C29.5476 15.5704 29.7901 15.4263 30.025 15.2704C29.7901 15.4263 29.5476 15.5704 29.2983 15.7021Z" fill="#FFC51A"></path><path data-v-223915df="" d="M28.2037 0.916478C27.7522 0.753457 27.2872 0.630354 26.8142 0.548584C27.2872 0.630354 27.7522 0.753457 28.2037 0.916478Z" fill="#FFC51A"></path><path data-v-223915df="" d="M28.4743 1.02295H25.1511C24.9231 1.11416 24.7042 1.21754 24.4883 1.32699H29.1371C28.9213 1.21754 28.7023 1.11416 28.4743 1.02295Z" fill="#211F20"></path><path data-v-223915df="" d="M30.4537 2.17517H23.1566C23.0319 2.27247 22.9103 2.3728 22.7917 2.47922H30.8033C30.6939 2.3728 30.5783 2.27247 30.4537 2.17517Z" fill="#211F20"></path><path data-v-223915df="" d="M31.6425 3.32751H21.983C21.8978 3.42481 21.8188 3.52818 21.7397 3.63156H31.8888C31.8097 3.52818 31.7276 3.41265 31.6425 3.32751Z" fill="#211F20"></path><path data-v-223915df="" d="M32.4542 4.47681H21.1711C21.1134 4.57714 21.0586 4.68052 21.0039 4.78085H32.6215C32.5667 4.68052 32.5181 4.57714 32.4542 4.47681Z" fill="#211F20"></path><path data-v-223915df="" d="M33.0076 5.62915H20.6208C20.5813 5.72949 20.5448 5.83286 20.5083 5.9332H33.1262L33.0076 5.62915Z" fill="#211F20"></path><path data-v-223915df="" d="M33.3542 6.78149H20.2803C20.259 6.88183 20.2377 6.9852 20.2195 7.08554H33.4302C33.3968 6.9852 33.3786 6.88183 33.3542 6.78149Z" fill="#211F20"></path><path data-v-223915df="" d="M33.5244 7.93384H20.1008C20.1008 8.03417 20.1008 8.13451 20.0825 8.23788H33.5426C33.5396 8.13451 33.5335 8.03417 33.5244 7.93384Z" fill="#211F20"></path><path data-v-223915df="" d="M33.5335 9.08618H20.0947C20.0947 9.18652 20.0947 9.28989 20.116 9.39023H33.5092C33.5183 9.28989 33.5244 9.18956 33.5335 9.08618Z" fill="#211F20"></path><path data-v-223915df="" d="M33.3754 10.2355H20.2498C20.271 10.3388 20.2954 10.4392 20.3197 10.5395H33.3054C33.3298 10.4392 33.3541 10.3388 33.3754 10.2355Z" fill="#211F20"></path><path data-v-223915df="" d="M33.044 11.3878H20.5781C20.6177 11.4912 20.6572 11.5915 20.6997 11.6919H32.9193C32.9649 11.5915 33.0044 11.4912 33.044 11.3878Z" fill="#211F20"></path><path data-v-223915df="" d="M32.518 12.5341H21.1194C21.1772 12.6374 21.2349 12.7378 21.2988 12.8381H32.3265C32.3903 12.7438 32.4481 12.6435 32.518 12.5341Z" fill="#211F20"></path><path data-v-223915df="" d="M31.7214 13.6924H21.9038C21.9889 13.7958 22.0741 13.8961 22.1653 13.9964H31.4599C31.5512 13.8961 31.6363 13.7958 31.7214 13.6924Z" fill="#211F20"></path><path data-v-223915df="" d="M30.5723 14.8447H23.0532C23.1809 14.9481 23.3147 15.0515 23.4515 15.1488H30.177C30.3108 15.0515 30.4446 14.9481 30.5723 14.8447Z" fill="#211F20"></path><path data-v-223915df="" d="M24.917 15.9971C25.1785 16.1096 25.443 16.2129 25.7166 16.3011H27.8845L28.2068 16.1917C28.3679 16.1308 28.5108 16.064 28.6841 15.9971H24.917Z" fill="#211F20"></path><path data-v-223915df="" d="M28.2188 0.922584L28.4742 1.02292C28.7022 1.11413 28.9212 1.21751 29.137 1.32696L29.3407 1.43338H32.1197C31.7547 1.23169 31.3745 1.05887 30.9826 0.916504H28.2036L28.2188 0.922584Z" fill="#211F20"></path><path data-v-223915df="" d="M29.3407 1.43332L29.137 1.3269L29.3407 1.43332Z" fill="#211F20"></path><path data-v-223915df="" d="M28.4741 1.02294L28.2188 0.922607L28.4741 1.02294Z" fill="#211F20"></path><path data-v-223915df="" d="M29.1369 1.32699C28.9211 1.21754 28.7022 1.11416 28.4741 1.02295C28.7022 1.11416 28.9211 1.21754 29.1369 1.32699Z" fill="#211F20"></path><path data-v-223915df="" d="M30.4535 2.17526C30.5782 2.27256 30.6998 2.37289 30.8184 2.47931L30.9369 2.58572H33.7159C33.5183 2.4033 33.3115 2.22999 33.1078 2.06885H30.3289L30.4535 2.17526Z" fill="#211F20"></path><path data-v-223915df="" d="M30.4536 2.17526L30.3198 2.06885L30.4536 2.17526Z" fill="#211F20"></path><path data-v-223915df="" d="M30.9369 2.58566L30.8184 2.47925L30.9369 2.58566Z" fill="#211F20"></path><path data-v-223915df="" d="M30.8185 2.47922C30.6999 2.3728 30.5783 2.27247 30.4536 2.17517C30.5783 2.27247 30.6938 2.3728 30.8185 2.47922Z" fill="#211F20"></path><path data-v-223915df="" d="M31.9677 3.73801L31.8887 3.63159L31.9677 3.73801Z" fill="#211F20"></path><path data-v-223915df="" d="M31.6425 3.32748L31.5513 3.22107L31.6425 3.32748Z" fill="#211F20"></path><path data-v-223915df="" d="M31.6425 3.32748C31.7276 3.42478 31.8097 3.52815 31.8888 3.63153L31.9678 3.73794H34.7468C34.616 3.55856 34.4762 3.38829 34.3302 3.22107H31.5513L31.6425 3.32748Z" fill="#211F20"></path><path data-v-223915df="" d="M31.8886 3.63156C31.8096 3.52818 31.7275 3.42481 31.6423 3.32751C31.7275 3.41265 31.8096 3.52818 31.8886 3.63156Z" fill="#211F20"></path><path data-v-223915df="" d="M32.6761 4.8873L32.6213 4.78088L32.6761 4.8873Z" fill="#211F20"></path><path data-v-223915df="" d="M32.4541 4.47678C32.4321 4.44235 32.4118 4.40683 32.3933 4.37036C32.4118 4.40683 32.4321 4.44235 32.4541 4.47678Z" fill="#211F20"></path><path data-v-223915df="" d="M32.4541 4.47678C32.5119 4.57711 32.5666 4.68049 32.6213 4.78082L32.6761 4.88724H35.455C35.3669 4.71393 35.2726 4.54063 35.1723 4.37036H32.3933C32.4118 4.40683 32.4321 4.44235 32.4541 4.47678Z" fill="#211F20"></path><path data-v-223915df="" d="M32.6213 4.78085C32.5666 4.68052 32.5119 4.57714 32.4541 4.47681C32.518 4.57714 32.5666 4.68052 32.6213 4.78085Z" fill="#211F20"></path><path data-v-223915df="" d="M33.1534 6.03964L33.1169 5.93323L33.1534 6.03964Z" fill="#211F20"></path><path data-v-223915df="" d="M33.0077 5.62912C32.9916 5.59441 32.9774 5.55889 32.9651 5.52271C32.9774 5.55889 32.9916 5.59441 33.0077 5.62912Z" fill="#211F20"></path><path data-v-223915df="" d="M33.0077 5.62912L33.1171 5.93317L33.1536 6.03958H35.9326C35.8748 5.86628 35.8109 5.69297 35.7441 5.52271H32.9651C32.9774 5.55889 32.9916 5.59441 33.0077 5.62912Z" fill="#211F20"></path><path data-v-223915df="" d="M33.1261 5.9332L33.0166 5.62915L33.1261 5.9332Z" fill="#211F20"></path><path data-v-223915df="" d="M33.3542 6.78146C33.3785 6.8818 33.3967 6.98517 33.415 7.08551C33.415 7.12199 33.4302 7.15544 33.4363 7.19192H36.2152C36.1848 7.01862 36.1483 6.84531 36.1088 6.67505H33.3298C33.339 6.71153 33.3481 6.75714 33.3542 6.78146Z" fill="#211F20"></path><path data-v-223915df="" d="M33.4302 7.19199C33.4302 7.1555 33.415 7.12206 33.4089 7.08557C33.4302 7.12206 33.4302 7.1555 33.4302 7.19199Z" fill="#211F20"></path><path data-v-223915df="" d="M33.3542 6.78146C33.3542 6.74498 33.339 6.71153 33.3298 6.67505C33.339 6.71153 33.3481 6.75714 33.3542 6.78146Z" fill="#211F20"></path><path data-v-223915df="" d="M33.4302 7.08554C33.412 6.9852 33.3937 6.88183 33.3694 6.78149C33.3785 6.88183 33.3967 6.9852 33.4302 7.08554Z" fill="#211F20"></path><path data-v-223915df="" d="M33.5245 7.93381C33.5245 7.89732 33.5245 7.86388 33.5245 7.82739C33.5215 7.86388 33.5215 7.89732 33.5245 7.93381Z" fill="#211F20"></path><path data-v-223915df="" d="M33.5245 7.93381C33.5245 8.03415 33.5397 8.13448 33.5427 8.23786C33.5427 8.27434 33.5427 8.30779 33.5427 8.34427H36.3217C36.3217 8.17096 36.3217 7.99766 36.2944 7.82739H33.5154C33.5215 7.86388 33.5215 7.89732 33.5245 7.93381Z" fill="#211F20"></path><path data-v-223915df="" d="M33.5427 8.23788C33.5427 8.13451 33.5427 8.03417 33.5244 7.93384C33.5335 8.03417 33.5396 8.13451 33.5427 8.23788Z" fill="#211F20"></path><path data-v-223915df="" d="M33.4941 9.49362C33.4941 9.45714 33.4941 9.42065 33.4941 9.38721C33.5063 9.42369 33.5002 9.46018 33.4941 9.49362Z" fill="#211F20"></path><path data-v-223915df="" d="M33.5334 9.08615C33.5334 9.04967 33.5334 9.01318 33.5334 8.97974C33.5395 9.01318 33.5334 9.04967 33.5334 9.08615Z" fill="#211F20"></path><path data-v-223915df="" d="M33.5336 9.08615C33.5336 9.18649 33.5184 9.28986 33.5093 9.3902C33.5093 9.42364 33.5093 9.46013 33.5093 9.49661H36.2882C36.3095 9.32331 36.3247 9.15304 36.3339 8.97974H33.5549C33.5397 9.01318 33.5336 9.04967 33.5336 9.08615Z" fill="#211F20"></path><path data-v-223915df="" d="M33.5093 9.39023C33.5093 9.28989 33.5245 9.18652 33.5336 9.08618C33.5245 9.18956 33.5184 9.28989 33.5093 9.39023Z" fill="#211F20"></path><path data-v-223915df="" d="M33.3754 10.2354C33.3541 10.3388 33.3298 10.4392 33.3054 10.5395L33.2781 10.6459H36.057C36.1027 10.4787 36.1422 10.3054 36.1756 10.129H33.3967C33.3906 10.1655 33.3845 10.202 33.3754 10.2354Z" fill="#211F20"></path><path data-v-223915df="" d="M33.2781 10.646L33.3054 10.5396L33.2781 10.646Z" fill="#211F20"></path><path data-v-223915df="" d="M33.3755 10.2354C33.3755 10.202 33.3907 10.1655 33.3968 10.129C33.3907 10.1655 33.3846 10.202 33.3755 10.2354Z" fill="#211F20"></path><path data-v-223915df="" d="M33.3054 10.5395C33.3297 10.4392 33.3541 10.3388 33.3754 10.2355C33.3541 10.3388 33.3297 10.4392 33.3054 10.5395Z" fill="#211F20"></path><path data-v-223915df="" d="M33.0439 11.3878L33.0804 11.2814L33.0439 11.3878Z" fill="#211F20"></path><path data-v-223915df="" d="M33.0442 11.3878C33.0047 11.4912 32.9651 11.5915 32.9226 11.6918L32.877 11.7983H35.6559C35.7289 11.631 35.7988 11.4577 35.8596 11.2814H33.0807L33.0442 11.3878Z" fill="#211F20"></path><path data-v-223915df="" d="M32.877 11.7982L32.9226 11.6918L32.877 11.7982Z" fill="#211F20"></path><path data-v-223915df="" d="M32.9224 11.6919C32.9649 11.5915 33.0045 11.4912 33.044 11.3878C33.0045 11.4912 32.9649 11.5915 32.9224 11.6919Z" fill="#211F20"></path><path data-v-223915df="" d="M32.518 12.534C32.4602 12.6374 32.4025 12.7377 32.3386 12.8381L32.2717 12.9445H35.0507C35.1571 12.7773 35.2635 12.604 35.3547 12.4276H32.5758C32.5484 12.4702 32.518 12.5036 32.518 12.534Z" fill="#211F20"></path><path data-v-223915df="" d="M32.2595 12.9505L32.3264 12.8441L32.2595 12.9505Z" fill="#211F20"></path><path data-v-223915df="" d="M32.5181 12.534C32.5393 12.4975 32.5606 12.4641 32.5789 12.4276C32.5485 12.4702 32.5181 12.5036 32.5181 12.534Z" fill="#211F20"></path><path data-v-223915df="" d="M32.3264 12.8381C32.3903 12.7378 32.448 12.6374 32.5058 12.5341C32.448 12.6435 32.3903 12.7438 32.3264 12.8381Z" fill="#211F20"></path><path data-v-223915df="" d="M31.7214 13.6925L31.8066 13.5861L31.7214 13.6925Z" fill="#211F20"></path><path data-v-223915df="" d="M31.3625 14.1029C31.396 14.0664 31.4294 14.0329 31.4598 13.9965C31.4294 14.0329 31.396 14.0542 31.3625 14.1029Z" fill="#211F20"></path><path data-v-223915df="" d="M31.7213 13.6925C31.6362 13.7959 31.5511 13.8962 31.4598 13.9965C31.4294 14.033 31.396 14.0665 31.3625 14.1029H34.1415C34.2966 13.9357 34.4456 13.7654 34.5854 13.5861H31.8065L31.7213 13.6925Z" fill="#211F20"></path><path data-v-223915df="" d="M31.46 13.9964C31.5512 13.8961 31.6363 13.7958 31.7214 13.6924C31.6363 13.7958 31.5512 13.8961 31.46 13.9964Z" fill="#211F20"></path><path data-v-223915df="" d="M30.5723 14.8448L30.6969 14.7384L30.5723 14.8448Z" fill="#211F20"></path><path data-v-223915df="" d="M30.5722 14.8448C30.4445 14.9482 30.3107 15.0516 30.1769 15.1489L30.0249 15.2553H32.8039C33.0368 15.0949 33.2611 14.9224 33.4758 14.7384H30.6938L30.5722 14.8448Z" fill="#211F20"></path><path data-v-223915df="" d="M30.0249 15.2705L30.1769 15.1641L30.0249 15.2705Z" fill="#211F20"></path><path data-v-223915df="" d="M30.177 15.1488C30.3108 15.0515 30.4446 14.9481 30.5723 14.8447C30.4446 14.9481 30.3108 15.0515 30.177 15.1488Z" fill="#211F20"></path><path data-v-223915df="" d="M28.6963 15.9972L28.9334 15.8907L28.6963 15.9972Z" fill="#211F20"></path><path data-v-223915df="" d="M31.7124 15.8785H28.9334L28.6962 15.985C28.5381 16.0518 28.3922 16.1187 28.2189 16.1795L27.8966 16.289L27.5317 16.3954H30.3107C30.7927 16.2661 31.2618 16.0931 31.7124 15.8785Z" fill="#211F20"></path><path data-v-223915df="" d="M28.2188 16.1826C28.3799 16.1218 28.5228 16.0549 28.6961 15.988C28.538 16.064 28.3799 16.1309 28.2188 16.1826Z" fill="#211F20"></path><path data-v-223915df="" d="M16.8079 0.138717V16.3224H15.1664V3.37546L8.80856 14.2648H7.99938L1.64149 3.44482V16.3224H0V0.138717H1.41029L8.43865 12.1378L15.3976 0.138717H16.8079Z" fill="#F8F9FA"></path><path data-v-223915df="" d="M47.3081 16.4611C45.7051 16.4611 44.2486 16.1066 42.9385 15.3976C41.6438 14.6732 40.6265 13.6868 39.8867 12.4383C39.1623 11.1899 38.8001 9.78729 38.8001 8.23057C38.8001 6.67385 39.1623 5.27127 39.8867 4.02281C40.6265 2.77435 41.6438 1.79562 42.9385 1.08662C44.2486 0.362207 45.7051 0 47.3081 0C48.911 0 50.3522 0.3545 51.6314 1.0635C52.9261 1.7725 53.9434 2.75894 54.6832 4.02281C55.4231 5.27127 55.793 6.67385 55.793 8.23057C55.793 9.78729 55.4231 11.1976 54.6832 12.4615C53.9434 13.7099 52.9261 14.6886 51.6314 15.3976C50.3522 16.1066 48.911 16.4611 47.3081 16.4611ZM47.3081 14.9353C48.5874 14.9353 49.7433 14.6501 50.776 14.0798C51.8087 13.4941 52.6179 12.6927 53.2036 11.6754C53.7893 10.6427 54.0821 9.49444 54.0821 8.23057C54.0821 6.9667 53.7893 5.82614 53.2036 4.80887C52.6179 3.7762 51.8087 2.97472 50.776 2.40444C49.7433 1.81874 48.5874 1.52589 47.3081 1.52589C46.0288 1.52589 44.8651 1.81874 43.817 2.40444C42.7844 2.97472 41.9675 3.7762 41.3664 4.80887C40.7807 5.82614 40.4878 6.9667 40.4878 8.23057C40.4878 9.49444 40.7807 10.6427 41.3664 11.6754C41.9675 12.6927 42.7844 13.4941 43.817 14.0798C44.8651 14.6501 46.0288 14.9353 47.3081 14.9353Z" fill="#F8F9FA"></path><path data-v-223915df="" d="M73.1527 0.138717V16.3224H71.7424L61.3386 3.1905V16.3224H59.6278V0.138717H61.038L71.465 13.2706V0.138717H73.1527Z" fill="#F8F9FA"></path><path data-v-223915df="" d="M89.8792 14.8428V16.3224H78.435V0.138717H89.5324V1.61837H80.1459V7.37515H88.5151V8.83168H80.1459V14.8428H89.8792Z" fill="#F8F9FA"></path><path data-v-223915df="" d="M97.045 1.61837H91.3576V0.138717H104.443V1.61837H98.7559V16.3224H97.045V1.61837Z" fill="#F8F9FA"></path><path data-v-223915df="" d="M118.228 16.3224L114.528 11.1205C114.112 11.1668 113.681 11.1899 113.234 11.1899H108.887V16.3224H107.176V0.138717H113.234C115.299 0.138717 116.917 0.631935 118.089 1.61837C119.26 2.60481 119.846 3.96116 119.846 5.68742C119.846 6.95129 119.522 8.0225 118.875 8.90104C118.243 9.76417 117.334 10.3884 116.147 10.7737L120.1 16.3224H118.228ZM113.188 9.73335C114.79 9.73335 116.016 9.37885 116.864 8.66984C117.711 7.96084 118.135 6.9667 118.135 5.68742C118.135 4.37731 117.711 3.37546 116.864 2.68187C116.016 1.97287 114.79 1.61837 113.188 1.61837H108.887V9.73335H113.188Z" fill="#F8F9FA"></path><path data-v-223915df="" d="M123.884 0.138717H125.595V16.3224H123.884V0.138717Z" fill="#F8F9FA"></path><path data-v-223915df="" d="M137.889 16.4611C136.286 16.4611 134.837 16.1066 133.542 15.3976C132.263 14.6886 131.253 13.7099 130.514 12.4615C129.789 11.1976 129.427 9.78729 129.427 8.23057C129.427 6.67385 129.789 5.27127 130.514 4.02281C131.253 2.75894 132.271 1.7725 133.565 1.0635C134.86 0.3545 136.309 0 137.912 0C139.114 0 140.224 0.20037 141.241 0.60111C142.258 1.00185 143.122 1.58754 143.831 2.3582L142.744 3.44482C141.48 2.16553 139.885 1.52589 137.958 1.52589C136.679 1.52589 135.515 1.81874 134.467 2.40444C133.419 2.99013 132.594 3.79161 131.993 4.80887C131.408 5.82614 131.115 6.9667 131.115 8.23057C131.115 9.49444 131.408 10.635 131.993 11.6523C132.594 12.6695 133.419 13.471 134.467 14.0567C135.515 14.6424 136.679 14.9353 137.958 14.9353C139.9 14.9353 141.495 14.2879 142.744 12.9932L143.831 14.0798C143.122 14.8505 142.251 15.4439 141.218 15.86C140.201 16.2608 139.091 16.4611 137.889 16.4611Z" fill="#F8F9FA"></path><path data-v-223915df="" d="M157.221 11.9991H148.204L146.262 16.3224H144.482L151.88 0.138717H153.568L160.966 16.3224H159.163L157.221 11.9991ZM156.597 10.6119L152.712 1.91893L148.828 10.6119H156.597Z" fill="#F8F9FA"></path></svg>