<svg width="170" height="170" viewBox="0 0 170 170" fill="none" xmlns="http://www.w3.org/2000/svg">
<g opacity="0.5">
<path d="M148.266 96.407C150.195 92.7435 151.3 88.5785 151.3 84.15C151.3 72.8943 144.23 63.3131 134.298 59.5374C134.298 59.5255 134.3 59.5136 134.3 59.5C134.3 39.7834 118.317 23.8 98.6 23.8C81.9672 23.8 68.0323 35.1917 64.0679 50.5869C61.5587 49.7624 58.8846 49.3 56.1 49.3C43.0236 49.3 32.2609 59.1481 30.787 71.8284C21.9402 73.7001 15.3 81.5473 15.3 90.95C15.3 101.747 24.0533 110.5 34.85 110.5C35.1509 110.5 35.4484 110.48 35.7442 110.463C35.7374 110.76 35.7 111.051 35.7 111.35C35.7 130.597 51.3026 146.2 70.55 146.2C81.4929 146.2 91.2475 141.148 97.6378 133.256C101.34 137.039 106.488 139.4 112.2 139.4C120.105 139.4 126.946 134.895 130.332 128.319C132.121 128.889 134.023 129.2 136 129.2C146.328 129.2 154.7 120.827 154.7 110.5C154.7 104.871 152.201 99.8359 148.266 96.407Z" fill="white" fill-opacity="0.1"/>
<path d="M117.3 125.8H107.525C103.301 127.075 99.875 123.649 99.875 119.425C99.875 115.459 102.904 112.236 106.769 111.851C106.731 111.544 106.675 111.243 106.675 110.925C106.675 106.7 110.101 103.275 114.325 103.275C116.77 103.275 118.92 104.441 120.321 106.226C120.559 101.745 124.234 98.175 128.775 98.175C133.469 98.175 137.275 101.981 137.275 106.675C137.275 107.433 137.144 108.154 136.957 108.854C138.049 107.533 139.677 106.675 141.525 106.675C144.553 106.675 147.023 108.944 147.399 111.868C147.706 111.831 148.007 111.775 148.325 111.775C152.55 111.775 155.975 115.2 155.975 119.425C155.975 123.649 152.55 127.075 148.325 125.8H132.175H122.4V127.5H117.3V125.8Z" fill="#9AA2AB"/>
<path d="M128.35 96.9C133.506 96.9 137.7 101.094 137.7 106.25C137.7 106.277 137.7 106.303 137.7 106.33C138.723 105.726 139.893 105.4 141.1 105.4C144.213 105.4 146.899 107.544 147.659 110.508C147.739 110.503 147.818 110.5 147.9 110.5C153.168 110.5 157.333 115.318 156.218 120.78C155.402 124.777 151.647 127.5 147.567 127.5H122.613C122.143 127.5 121.763 127.119 121.763 126.65C121.763 126.181 122.143 125.8 122.613 125.8H147.633C150.897 125.8 153.901 123.621 154.554 120.423C155.446 116.054 152.114 112.2 147.9 112.2C147.701 112.2 147.509 112.229 147.317 112.254L147.077 112.287C147.042 112.292 147.008 112.293 146.972 112.293C146.554 112.293 146.186 111.979 146.13 111.551C145.806 109.012 143.643 107.1 141.1 107.1C139.596 107.1 138.171 107.782 137.188 108.97C137.022 109.171 136.779 109.279 136.532 109.279C136.4 109.279 136.267 109.249 136.145 109.184C135.789 109.002 135.611 108.596 135.713 108.21C135.985 107.19 136.056 106.393 135.963 105.577C135.555 101.961 132.632 98.9315 129.006 98.6272C124.67 98.2617 120.974 101.565 120.746 105.845C120.727 106.199 120.491 106.503 120.153 106.61C120.068 106.638 119.981 106.651 119.894 106.651C119.639 106.651 119.391 106.534 119.228 106.325C117.915 104.657 115.976 103.7 113.9 103.7C110.15 103.7 107.1 106.75 107.1 110.5C107.1 110.699 107.129 110.891 107.154 111.083L107.187 111.323C107.214 111.551 107.149 111.778 107.007 111.957C106.864 112.135 106.655 112.249 106.429 112.271C102.43 112.669 99.5571 116.401 100.472 120.542C101.165 123.692 104.168 125.8 107.394 125.8H117.513C117.982 125.8 118.363 126.181 118.363 126.65C118.363 127.119 117.982 127.5 117.513 127.5H107.418C103.224 127.5 99.4143 124.603 98.7224 120.465C97.937 115.768 101.007 111.591 105.405 110.707C105.402 110.639 105.4 110.57 105.4 110.5C105.4 105.813 109.213 102 113.9 102C115.899 102 117.798 102.707 119.311 103.979C120.328 99.892 124.007 96.9 128.35 96.9Z" fill="white"/>
<path d="M131.325 109.225C133.71 109.225 135.76 110.923 136.277 113.205C136.901 112.827 137.613 112.625 138.338 112.625C140.381 112.625 142.074 114.15 142.338 116.141C142.683 116.064 143.011 116.025 143.332 116.025C145.931 116.025 148.111 118.065 148.293 120.669C148.308 120.904 148.133 121.106 147.898 121.123C147.888 121.123 147.878 121.123 147.868 121.123C147.647 121.123 147.46 120.952 147.444 120.729C147.293 118.568 145.488 116.873 143.332 116.873C142.943 116.873 142.533 116.945 142.078 117.089C142.04 117.101 142.001 117.106 141.964 117.106C141.87 117.106 141.777 117.072 141.698 117.014C141.59 116.935 141.525 116.795 141.525 116.659C141.525 114.901 140.095 113.472 138.338 113.472C137.578 113.472 136.833 113.757 136.245 114.276C136.165 114.345 136.065 114.383 135.964 114.383C135.91 114.383 135.857 114.373 135.806 114.351C135.657 114.291 135.555 114.152 135.543 113.99C135.369 111.794 133.518 110.072 131.328 110.072C130.975 110.072 130.606 110.129 130.169 110.254C130.13 110.265 130.089 110.271 130.05 110.271C129.865 110.271 129.698 110.146 129.644 109.961C129.579 109.735 129.71 109.5 129.936 109.436C130.446 109.293 130.89 109.225 131.325 109.225ZM107.724 111.775C109.978 111.775 111.988 113.3 112.61 115.484C112.674 115.711 112.543 115.945 112.317 116.01C112.278 116.022 112.239 116.027 112.202 116.027C112.016 116.027 111.846 115.904 111.794 115.717C111.275 113.897 109.602 112.627 107.726 112.627C107.527 112.627 107.335 112.651 107.144 112.676C107.124 112.679 107.105 112.681 107.085 112.681C106.879 112.681 106.695 112.525 106.667 112.312C106.634 112.079 106.797 111.865 107.03 111.835C107.256 111.802 107.488 111.775 107.724 111.775Z" fill="white"/>
<path d="M24.4886 90.1H7.65005C7.18085 90.1 6.80005 89.7192 6.80005 89.25C6.80005 88.7808 7.18085 88.4 7.65005 88.4H24.4886C24.9578 88.4 25.3386 88.7808 25.3386 89.25C25.3386 89.7192 24.9594 90.1 24.4886 90.1ZM29.7501 90.1H28.0501C27.5809 90.1 27.2001 89.7192 27.2001 89.25C27.2001 88.7808 27.5809 88.4 28.0501 88.4H29.7501C30.2193 88.4 30.6001 88.7808 30.6001 89.25C30.6001 89.7192 30.221 90.1 29.7501 90.1ZM38.2348 93.5H22.9501C22.4809 93.5 22.1 93.1192 22.1 92.65C22.1 92.1808 22.4809 91.8 22.9501 91.8H38.2348C38.704 91.8 39.0848 92.1808 39.0848 92.65C39.0848 93.1192 38.704 93.5 38.2348 93.5ZM19.55 93.5H17.85C17.3808 93.5 17 93.1192 17 92.65C17 92.1808 17.3808 91.8 17.85 91.8H19.55C20.0192 91.8 20.4001 92.1808 20.4001 92.65C20.4001 93.1192 20.021 93.5 19.55 93.5ZM14.45 93.5H11.05C10.5808 93.5 10.2 93.1192 10.2 92.65C10.2 92.1808 10.5808 91.8 11.05 91.8H14.45C14.9192 91.8 15.3 92.1808 15.3 92.65C15.3 93.1192 14.9209 93.5 14.45 93.5ZM24.6501 96.9H21.2501C20.7809 96.9 20.4001 96.5192 20.4001 96.05C20.4001 95.5808 20.7809 95.2 21.2501 95.2H24.6501C25.1193 95.2 25.5001 95.5808 25.5001 96.05C25.5001 96.5192 25.1193 96.9 24.6501 96.9ZM29.7501 81.6C29.4492 81.6 28.351 81.6 28.0501 81.6C27.5809 81.6 27.2001 81.9808 27.2001 82.45C27.2001 82.9192 27.5809 83.3 28.0501 83.3C28.351 83.3 29.4492 83.3 29.7501 83.3C30.2193 83.3 30.6001 82.9192 30.6001 82.45C30.6001 81.9808 30.2193 81.6 29.7501 81.6ZM29.7501 85C29.4492 85 21.551 85 21.2501 85C20.7809 85 20.4001 85.3808 20.4001 85.85C20.4001 86.3192 20.7809 86.7 21.2501 86.7C21.551 86.7 29.4492 86.7 29.7501 86.7C30.2193 86.7 30.6001 86.3192 30.6001 85.85C30.6001 85.3808 30.2193 85 29.7501 85ZM38.2501 88.4C37.9492 88.4 33.451 88.4 33.1501 88.4C32.6809 88.4 32.3001 88.7808 32.3001 89.25C32.3001 89.7192 32.6809 90.1 33.1501 90.1C33.451 90.1 37.9492 90.1 38.2501 90.1C38.7193 90.1 39.1001 89.7192 39.1001 89.25C39.1001 88.7808 38.7193 88.4 38.2501 88.4Z" fill="white"/>
<path d="M115.6 39.1H98.6C98.1308 39.1 97.75 38.7192 97.75 38.25C97.75 37.7808 98.1308 37.4 98.6 37.4H115.6C116.069 37.4 116.45 37.7808 116.45 38.25C116.45 38.7192 116.069 39.1 115.6 39.1ZM122.4 39.1H119C118.531 39.1 118.15 38.7192 118.15 38.25C118.15 37.7808 118.531 37.4 119 37.4H122.4C122.869 37.4 123.25 37.7808 123.25 38.25C123.25 38.7192 122.869 39.1 122.4 39.1ZM130.9 42.5H113.9C113.431 42.5 113.05 42.1192 113.05 41.65C113.05 41.1808 113.431 40.8 113.9 40.8H130.9C131.369 40.8 131.75 41.1808 131.75 41.65C131.75 42.1192 131.371 42.5 130.9 42.5ZM110.5 42.5H108.8C108.331 42.5 107.95 42.1192 107.95 41.65C107.95 41.1808 108.331 40.8 108.8 40.8H110.5C110.969 40.8 111.35 41.1808 111.35 41.65C111.35 42.1192 110.969 42.5 110.5 42.5ZM105.188 42.5H102C101.531 42.5 101.15 42.1192 101.15 41.65C101.15 41.1808 101.531 40.8 102 40.8H105.188C105.657 40.8 106.038 41.1808 106.038 41.65C106.038 42.1192 105.657 42.5 105.188 42.5ZM120.7 35.7H112.2C111.731 35.7 111.35 35.3192 111.35 34.85C111.35 34.3808 111.731 34 112.2 34H120.7C121.169 34 121.55 34.3808 121.55 34.85C121.55 35.3192 121.171 35.7 120.7 35.7ZM115.6 45.9H112.2C111.731 45.9 111.35 45.5192 111.35 45.05C111.35 44.5808 111.731 44.2 112.2 44.2H115.6C116.069 44.2 116.45 44.5808 116.45 45.05C116.45 45.5192 116.069 45.9 115.6 45.9Z" fill="white"/>
<path d="M36.125 72.25C36.125 72.25 33.4611 72.25 30.175 72.25C26.8889 72.25 24.225 69.5861 24.225 66.3C24.225 63.2723 26.4945 60.8022 29.4185 60.4265C29.3709 60.1222 29.325 59.8179 29.325 59.5C29.325 56.2139 31.9889 53.55 35.275 53.55C37.0294 53.55 38.59 54.3235 39.678 55.5305C40.3308 52.4569 43.0559 50.15 46.325 50.15C50.0803 50.15 53.125 53.1947 53.125 56.95C53.125 57.2747 53.074 57.5858 53.0298 57.8986C53.7574 57.3138 54.6703 56.95 55.675 56.95C57.7626 56.95 59.4915 58.4579 59.8485 60.4435C60.1528 60.3959 60.4571 60.35 60.775 60.35C64.0611 60.35 66.725 63.0139 66.725 66.3C66.725 69.5861 64.0611 72.25 60.775 72.25C57.4889 72.25 48.025 72.25 48.025 72.25V73.1H36.125V72.25Z" fill="#9AA2AB"/>
<path d="M33.15 64.6C33.3846 64.6 33.575 64.4096 33.575 64.175C33.575 62.0959 31.8835 60.4044 29.8044 60.4044C29.7466 60.4197 28.5515 60.4027 27.6896 60.6356C27.4635 60.6968 27.3292 60.9297 27.3904 61.1558C27.4516 61.3836 27.6845 61.5179 27.9106 61.455C28.6654 61.251 29.7806 61.251 29.8027 61.2544C31.4143 61.2544 32.725 62.5651 32.725 64.175C32.725 64.4096 32.9154 64.6 33.15 64.6ZM44.625 71.4C44.3996 71.4 44.1834 71.4895 44.024 71.6489C43.8646 71.8084 43.775 72.0246 43.775 72.25C43.775 72.4754 43.8646 72.6916 44.024 72.851C44.1834 73.0104 44.3996 73.1 44.625 73.1C44.8504 73.1 45.0666 73.0104 45.226 72.851C45.3855 72.6916 45.475 72.4754 45.475 72.25C45.475 72.0246 45.3855 71.8084 45.226 71.6489C45.0666 71.4895 44.8504 71.4 44.625 71.4Z" fill="white"/>
<path d="M30.175 73.1H36.125C36.5942 73.1 36.975 72.7192 36.975 72.25C36.975 71.7808 36.5942 71.4 36.125 71.4H30.175C27.3632 71.4 25.075 69.1118 25.075 66.3C25.075 63.7568 26.9875 61.5944 29.5256 61.2697C29.7534 61.2391 29.9591 61.1201 30.0968 60.9365C30.2345 60.7529 30.2923 60.5217 30.2566 60.2956C30.2175 60.0338 30.175 59.772 30.175 59.5C30.175 56.6882 32.4632 54.4 35.275 54.4C36.72 54.4 38.0596 55.0035 39.0473 56.1C39.2598 56.3363 39.593 56.4366 39.8973 56.3516C40.2067 56.2683 40.443 56.0201 40.5093 55.7073C41.089 52.9805 43.5353 51 46.325 51C49.606 51 52.275 53.669 52.275 56.95C52.275 57.1931 52.2393 57.426 52.2053 57.6606C52.156 58.0057 52.3124 58.4052 52.6167 58.5786C52.921 58.752 53.2899 58.7792 53.5619 58.5616C54.1824 58.0635 54.9117 57.8 55.675 57.8C57.3172 57.8 58.7214 58.9747 59.0121 60.5948C59.0937 61.0487 59.5153 61.353 59.9794 61.2833C60.2412 61.2425 60.503 61.2 60.775 61.2C63.5868 61.2 65.875 63.4882 65.875 66.3C65.875 69.1118 63.5868 71.4 60.775 71.4H48.025C47.5558 71.4 47.175 71.7808 47.175 72.25C47.175 72.7192 47.5558 73.1 48.025 73.1H60.775C64.5252 73.1 67.575 70.0502 67.575 66.3C67.575 62.5498 64.5252 59.5 60.775 59.5C60.6747 59.5 60.5778 59.5034 60.4792 59.5102C59.7754 57.494 57.8663 56.1 55.675 56.1C55.0817 56.1 54.5037 56.2037 53.9563 56.406C53.6758 52.4399 50.3608 49.3 46.325 49.3C43.2123 49.3 40.4328 51.2159 39.2649 54.0158C38.1089 53.1692 36.7115 52.7 35.275 52.7C31.5248 52.7 28.475 55.7498 28.475 59.5C28.475 59.5816 28.4767 59.6615 28.4818 59.7414C25.5187 60.503 23.375 63.1873 23.375 66.3C23.375 70.0502 26.4248 73.1 30.175 73.1Z" fill="white"/>
<path d="M39.525 71.4C39.7953 71.4 40.9547 71.4 41.225 71.4C41.6943 71.4 42.0751 71.7808 42.0751 72.25C42.0751 72.7192 41.6943 73.1 41.225 73.1C40.9547 73.1 39.7953 73.1 39.525 73.1C39.0558 73.1 38.675 72.7192 38.675 72.25C38.675 71.7808 39.0558 71.4 39.525 71.4Z" fill="white"/>
<path d="M133.765 70.8917L135.48 74.3682L139.317 74.9258L136.541 77.6305L137.195 81.4504L133.765 79.6467L130.334 81.4504L130.99 77.6305L128.214 74.9258L132.049 74.3682L133.765 70.8917Z" fill="#9AA2AB"/>
<path d="M137.197 82.1253C137.088 82.1253 136.983 82.0998 136.882 82.0488L133.766 80.41L130.65 82.0488C130.422 82.1695 130.149 82.1491 129.938 81.9995C129.732 81.8499 129.627 81.5932 129.669 81.3382L130.266 77.8668L127.743 75.4103C127.558 75.2284 127.493 74.9632 127.572 74.7184C127.651 74.4736 127.861 74.2968 128.116 74.2594L131.602 73.7528L133.163 70.5959C133.389 70.1369 134.147 70.1369 134.372 70.5959L135.932 73.7528L139.417 74.2594C139.672 74.2985 139.881 74.4736 139.961 74.7184C140.041 74.9632 139.975 75.2318 139.789 75.4103L137.268 77.8668L137.865 81.3382C137.908 81.5932 137.806 81.8499 137.596 81.9995C137.474 82.0811 137.336 82.1253 137.197 82.1253ZM133.765 78.9735C133.873 78.9735 133.981 78.999 134.079 79.05L136.299 80.2162L135.874 77.7444C135.835 77.5251 135.908 77.3024 136.07 77.1443L137.865 75.3933L135.383 75.0329C135.165 75.0006 134.975 74.8612 134.876 74.664L133.766 72.4149L132.656 74.664C132.558 74.8629 132.369 75.0023 132.15 75.0329L129.666 75.3933L131.463 77.1443C131.623 77.3007 131.694 77.5217 131.658 77.7444L131.233 80.2162L133.45 79.05C133.549 78.9973 133.659 78.9735 133.765 78.9735Z" fill="white"/>
<path d="M79.9137 40.3767L82.1543 44.9208L87.1676 45.6484L83.5398 49.1844L84.3966 54.179L79.9137 51.8211L75.4274 54.179L76.2842 49.1844L72.6564 45.6484L77.6697 44.9208L79.9137 40.3767Z" fill="#9AA2AB"/>
<path d="M84.3966 54.8522C84.2878 54.8522 84.1824 54.8267 84.0821 54.7757L79.9103 52.5844L75.7419 54.7757C75.5124 54.8964 75.2387 54.876 75.0296 54.7264C74.8239 54.5768 74.7185 54.3201 74.761 54.0651L75.5566 49.4241L72.1821 46.1363C71.9968 45.9544 71.9322 45.6892 72.0104 45.4444C72.0903 45.2013 72.2994 45.0228 72.5544 44.9854L77.2192 44.3071L79.3034 40.0843C79.5295 39.6253 80.2877 39.6253 80.5121 40.0843L82.598 44.3071L87.2611 44.9854C87.5161 45.0245 87.7252 45.1996 87.8051 45.4444C87.885 45.6892 87.8187 45.9578 87.6334 46.1363L84.2606 49.4241L85.0562 54.0651C85.0987 54.3201 84.9967 54.5768 84.7876 54.7264C84.6754 54.808 84.5377 54.8522 84.3966 54.8522ZM79.912 51.1479C80.0208 51.1479 80.1262 51.1734 80.2265 51.2244L83.5007 52.9448L82.8751 49.3C82.836 49.0807 82.9091 48.858 83.0706 48.6999L85.7175 46.1176L82.0574 45.5872C81.8398 45.5549 81.6494 45.4155 81.5508 45.2183L79.912 41.9016L78.2732 45.22C78.1746 45.4189 77.9859 45.5583 77.7666 45.5889L74.1048 46.1193L76.7551 48.7016C76.9149 48.858 76.9863 49.079 76.9506 49.3017L76.325 52.9465L79.5975 51.2261C79.6944 51.1717 79.8049 51.1479 79.912 51.1479Z" fill="white"/>
<path d="M47.0645 92.7622L51.4505 88.3762L74.29 82.9396L64.3076 94.9178L47.0645 92.7622Z" fill="white" fill-opacity="0.5"/>
<path d="M71.0855 84.9252L63.8095 93.6581L49.6264 91.885L52.054 89.4574L71.0855 84.9252ZM77.4928 80.954L50.847 87.2984L44.5026 93.6428L64.804 96.1809L77.4928 80.954Z" fill="white"/>
<path d="M78.0879 108.698L90.0661 98.7156L84.6278 121.555L80.2435 125.941L78.0879 108.698Z" fill="white" fill-opacity="0.5"/>
<path d="M88.0803 101.92L83.5498 120.952L81.1222 123.379L79.3491 109.196L88.0803 101.92ZM92.0515 95.5128L76.8246 108.202L79.3627 128.503L85.7071 122.159L92.0515 95.5128Z" fill="white"/>
<path d="M53.9258 123.639C52.1102 123.639 50.5819 123.43 49.7251 123.284C49.3494 121.086 48.5844 114.451 51.913 109.769C53.8782 107.005 56.996 105.334 61.1865 104.798L68.2092 111.821C66.9614 121.57 59.7857 123.639 53.9258 123.639C53.9275 123.639 53.9275 123.639 53.9258 123.639Z" fill="white" fill-opacity="0.5"/>
<path d="M60.7664 106.058L63.857 109.149L66.9476 112.239C65.8732 119.014 61.4974 122.446 53.9273 122.446C52.688 122.446 51.5898 122.344 50.7704 122.235C50.4304 119.649 50.155 114.284 52.8903 110.446C54.5648 108.096 57.2117 106.622 60.7664 106.058ZM61.6215 103.549C44.1693 105.33 48.71 124.296 48.71 124.296C48.71 124.296 50.9319 124.828 53.9273 124.828C59.6818 124.828 68.2872 122.862 69.4585 111.384C66.8473 108.773 65.54 107.466 65.54 107.466C65.54 107.466 64.2327 106.16 61.6215 103.549Z" fill="white"/>
<path d="M57.1693 117.223C56.5947 117.223 56.1306 117.186 55.8484 117.155C55.658 115.535 55.2381 108.278 62.7351 106.848L66.1589 110.272C65.0046 116.314 60.0457 117.223 57.1693 117.223Z" fill="#9AA2AB"/>
<path d="M62.5939 107.309L64.146 108.861L65.6981 110.412C64.5217 115.957 59.879 116.8 57.1709 116.8C56.8054 116.8 56.4875 116.785 56.2359 116.764C56.0625 114.765 56.0965 108.684 62.5939 107.309ZM62.8778 106.389C53.8372 107.95 55.4726 117.535 55.4726 117.535C55.4726 117.535 56.1492 117.65 57.1709 117.65C59.998 117.65 65.472 116.768 66.6178 110.129C65.3717 108.883 64.7478 108.259 64.7478 108.259C64.7478 108.259 64.1239 107.635 62.8778 106.389Z" fill="white"/>
<path d="M61.0742 103.722L64.0407 98.0339L74.9717 108.965L69.2835 111.931L61.0742 103.722Z" fill="white" fill-opacity="0.5"/>
<path d="M64.3466 100.023L72.9843 108.659L69.5078 110.473L62.5327 103.498L64.3466 100.023ZM63.7363 96.0466L59.6155 103.945L69.0607 113.39L76.9606 109.267L63.7363 96.0466Z" fill="white"/>
<path d="M75.6755 110.401C75.2182 110.401 74.7898 110.223 74.4651 109.9L63.0921 98.5269C62.4682 97.9047 62.4257 96.8881 62.9952 96.2149L89.2755 65.1695C96.9748 55.9453 106.68 54.0107 113.468 54.0107C114.73 54.0107 115.972 54.0804 117.159 54.2164C117.965 54.3099 118.589 54.9661 118.645 55.7804C119.017 61.2425 118.713 74.8969 107.843 83.7012L76.7788 109.997C76.4694 110.257 76.0784 110.401 75.6755 110.401Z" fill="#9AA2AB"/>
<path d="M113.47 55.2007C114.685 55.2007 115.882 55.267 117.024 55.3979C117.259 55.4251 117.443 55.6189 117.458 55.8603C117.818 61.1371 117.531 74.3223 107.054 82.8087L76.0086 109.089C75.8879 109.191 75.7604 109.211 75.6737 109.211C75.5938 109.211 75.4391 109.191 75.3065 109.06L69.6625 103.416L69.5758 103.329L63.9318 97.6854C63.7431 97.4967 63.7295 97.189 63.9029 96.9833L90.1934 65.9243C97.5935 57.0605 106.937 55.2007 113.47 55.2007ZM113.47 52.8207C106.977 52.8207 96.5429 54.6057 88.3676 64.4011L62.0873 95.4465C61.1132 96.5974 61.1846 98.3042 62.2505 99.3701L67.8945 105.014L67.9812 105.101L73.6252 110.743C74.1879 111.307 74.9308 111.593 75.6754 111.593C76.3401 111.593 77.0048 111.367 77.5488 110.906L108.594 84.626C119.911 75.4596 120.21 61.2153 119.835 55.6988C119.739 54.315 118.677 53.193 117.298 53.0349C116.288 52.9176 114.986 52.8207 113.47 52.8207Z" fill="white"/>
<path d="M94.9908 70.3647C92.9619 70.3647 91.0161 71.1707 89.5815 72.6053C88.1468 74.04 87.3408 75.9858 87.3408 78.0147C87.3408 80.0436 88.1468 81.9894 89.5815 83.424C91.0161 84.8587 92.9619 85.6647 94.9908 85.6647C97.0197 85.6647 98.9655 84.8587 100.4 83.424C101.835 81.9894 102.641 80.0436 102.641 78.0147C102.641 75.9858 101.835 74.04 100.4 72.6053C98.9655 71.1707 97.0197 70.3647 94.9908 70.3647Z" fill="white" fill-opacity="0.5"/>
<path d="M102.185 81.4674C102.09 81.4674 101.991 81.4504 101.896 81.4181C101.454 81.2583 101.226 80.7704 101.386 80.3284C101.886 78.9429 101.922 77.3993 101.483 75.99C101.344 75.5412 101.594 75.0652 102.042 74.9258C102.495 74.7813 102.967 75.038 103.107 75.4851C103.654 77.2463 103.61 79.1724 102.984 80.9047C102.86 81.2515 102.534 81.4674 102.185 81.4674Z" fill="white"/>
<path d="M94.9891 86.5164C92.7196 86.5164 90.5844 85.6307 88.9796 84.0259C87.3748 82.4211 86.4908 80.2876 86.4908 78.0164C86.4908 75.7452 87.3748 73.61 88.9796 72.0052C92.2946 68.6936 97.687 68.6936 101 72.0052C101.332 72.3367 101.332 72.8756 101 73.2071C100.669 73.5386 100.13 73.5386 99.7985 73.2071C97.1465 70.5568 92.8335 70.5585 90.1815 73.2071C88.898 74.4923 88.1908 76.2008 88.1908 78.0164C88.1908 79.832 88.898 81.5405 90.1815 82.824C92.7502 85.3944 97.2298 85.3944 99.7985 82.824C100.13 82.4925 100.669 82.4925 101 82.824C101.332 83.1555 101.332 83.6944 101 84.0259C99.3955 85.6307 97.2603 86.5164 94.9891 86.5164Z" fill="white"/>
<path d="M114.67 72.7549C118.505 64.311 117.414 55.3741 117.397 55.3741C117.397 55.3571 108.786 53.6384 100.035 58.0669L114.67 72.7549Z" fill="#9AA2AB"/>
<path d="M107.913 65.9685C107.804 65.9685 107.695 65.9277 107.612 65.8444L99.5725 57.8051C99.4059 57.6385 99.4059 57.3699 99.5725 57.2033C99.7391 57.0367 100.008 57.0367 100.174 57.2033L108.214 65.2426C108.38 65.4092 108.38 65.6778 108.214 65.8444C108.13 65.926 108.021 65.9685 107.913 65.9685Z" fill="white"/>
<path d="M113.021 71.0787C112.912 71.0787 112.803 71.0379 112.72 70.9546L109.565 67.7994C109.398 67.6328 109.398 67.3642 109.565 67.1976C109.731 67.031 110 67.031 110.167 67.1976L113.322 70.3528C113.488 70.5194 113.488 70.788 113.322 70.9546C113.239 71.0362 113.13 71.0787 113.021 71.0787Z" fill="white"/>
<path d="M81.5217 101.867C81.4129 101.867 81.3041 101.827 81.2208 101.743L73.5861 94.1086C73.4195 93.942 73.4195 93.6734 73.5861 93.5068C73.7527 93.3402 74.0213 93.3402 74.1879 93.5068L81.8226 101.141C81.9892 101.308 81.9892 101.577 81.8226 101.743C81.7393 101.825 81.6305 101.867 81.5217 101.867Z" fill="white"/>
<path d="M72.0323 92.378C71.9235 92.378 71.8147 92.3372 71.7314 92.2539L68.7343 89.2551C68.5677 89.0885 68.5677 88.8199 68.7343 88.6533C68.9009 88.4867 69.1695 88.4867 69.3361 88.6533L72.3332 91.6521C72.4998 91.8187 72.4998 92.0873 72.3332 92.2539C72.2499 92.3355 72.1411 92.378 72.0323 92.378Z" fill="white"/>
</g>
</svg>
