<svg width="20" height="18" viewBox="0 0 20 18" fill="none" xmlns="http://www.w3.org/2000/svg">
<path d="M15.0923 5.24414C14.7232 5.02638 14.2435 5.02638 13.8377 5.24414L10.9594 6.91357L9.00369 8.00231L6.12545 9.67169C5.75647 9.88945 5.27673 9.88945 4.87086 9.67169L2.58301 8.36523C2.21403 8.14747 1.95574 7.74823 1.95574 7.31276V4.73607C1.95574 4.30055 2.17714 3.90136 2.58301 3.6836L4.83392 2.41337C5.20296 2.19566 5.68265 2.19566 6.08857 2.41337L8.33948 3.6836C8.70847 3.90136 8.9668 4.30055 8.9668 4.73607V6.40544L10.9225 5.28042V3.611C10.9225 3.17553 10.7011 2.77628 10.2952 2.55857L6.12545 0.163308C5.75647 -0.0544361 5.27673 -0.0544361 4.87086 0.163308L0.627304 2.55857C0.221402 2.77628 0 3.17553 0 3.611V8.43778C0 8.8733 0.221402 9.2725 0.627304 9.49026L4.87086 11.8855C5.23984 12.1032 5.71953 12.1032 6.12545 11.8855L9.00369 10.2524L10.9594 9.12734L13.8377 7.49419C14.2066 7.27648 14.6863 7.27648 15.0923 7.49419L17.3432 8.76442C17.7122 8.98218 17.9705 9.38138 17.9705 9.8169V12.3936C17.9705 12.8291 17.7491 13.2283 17.3432 13.4461L15.0923 14.7525C14.7232 14.9703 14.2435 14.9703 13.8377 14.7525L11.5867 13.4823C11.2177 13.2646 10.9594 12.8654 10.9594 12.4299V10.7604L9.00369 11.8855V13.5549C9.00369 13.9904 9.22509 14.3896 9.63101 14.6074L13.8745 17.0026C14.2435 17.2204 14.7232 17.2204 15.1291 17.0026L19.3727 14.6074C19.7417 14.3896 20 13.9904 20 13.5549V8.72815C20 8.29263 19.7786 7.89344 19.3727 7.67568L15.0923 5.24414Z" fill="white"/>
</svg>
