<svg width="17" height="16" viewBox="0 0 17 16" fill="none" xmlns="http://www.w3.org/2000/svg">
<path d="M8.99032 0.0743561C8.8247 0.0769435 8.66688 0.145162 8.55152 0.264028C8.43617 0.382894 8.37271 0.542686 8.37508 0.708308V1.95831C8.37391 2.04113 8.38921 2.12335 8.4201 2.20021C8.45098 2.27706 8.49683 2.34702 8.55498 2.406C8.61314 2.46498 8.68243 2.51181 8.75884 2.54378C8.83525 2.57575 8.91725 2.59221 9.00008 2.59221C9.08291 2.59221 9.16491 2.57575 9.24132 2.54378C9.31773 2.51181 9.38703 2.46498 9.44518 2.406C9.50333 2.34702 9.54919 2.27706 9.58007 2.20021C9.61095 2.12335 9.62625 2.04113 9.62508 1.95831V0.708308C9.62628 0.624656 9.61068 0.541614 9.57919 0.464103C9.54771 0.386593 9.50098 0.316192 9.44179 0.257073C9.38259 0.197954 9.31213 0.151319 9.23458 0.119933C9.15703 0.0885473 9.07397 0.0730488 8.99032 0.0743561ZM3.36857 0.493464C3.24419 0.493495 3.12264 0.530634 3.01948 0.600131C2.91633 0.669628 2.83625 0.768322 2.7895 0.883586C2.74274 0.998849 2.73144 1.12544 2.75704 1.24716C2.78264 1.36888 2.84397 1.4802 2.93319 1.56687L3.76652 2.4002C3.82411 2.46018 3.89309 2.50807 3.96942 2.54106C4.04575 2.57405 4.1279 2.59148 4.21105 2.59232C4.2942 2.59317 4.37668 2.57742 4.45366 2.54598C4.53065 2.51455 4.60059 2.46808 4.65939 2.40928C4.71819 2.35048 4.76466 2.28054 4.79609 2.20356C4.82752 2.12657 4.84328 2.04409 4.84243 1.96094C4.84159 1.87779 4.82416 1.79564 4.79117 1.71931C4.75818 1.64298 4.71029 1.574 4.65031 1.51641L3.81698 0.68308C3.75872 0.623086 3.68902 0.575392 3.61199 0.542821C3.53497 0.510251 3.4522 0.493468 3.36857 0.493464ZM14.6129 0.494278C14.4506 0.499009 14.2965 0.566721 14.1832 0.68308L13.3499 1.51641C13.2899 1.574 13.242 1.64298 13.209 1.71931C13.176 1.79564 13.1586 1.87779 13.1577 1.96094C13.1569 2.04409 13.1726 2.12657 13.2041 2.20356C13.2355 2.28054 13.282 2.35048 13.3408 2.40928C13.3996 2.46808 13.4695 2.51455 13.5465 2.54598C13.6235 2.57742 13.706 2.59317 13.7891 2.59232C13.8723 2.59148 13.9544 2.57405 14.0307 2.54106C14.1071 2.50807 14.1761 2.46018 14.2336 2.4002L15.067 1.56687C15.1571 1.47905 15.2187 1.36606 15.2436 1.24269C15.2685 1.11931 15.2555 0.991293 15.2065 0.87539C15.1574 0.759486 15.0745 0.661096 14.9686 0.593096C14.8627 0.525096 14.7387 0.490655 14.6129 0.494278ZM4.20842 3.41664C2.95018 3.41664 1.91675 4.45007 1.91675 5.70831V6.49119L0.849855 7.55808C0.732689 7.67529 0.66687 7.83424 0.66687 7.99997C0.66687 8.16571 0.732689 8.32465 0.849855 8.44187L1.91675 9.50876V10.2916C1.91675 11.5499 2.95018 12.5833 4.20842 12.5833H14.6251C15.8833 12.5833 16.9167 11.5499 16.9167 10.2916V5.70831C16.9167 4.45007 15.8833 3.41664 14.6251 3.41664H4.20842ZM4.20842 4.66664H14.6251C15.2077 4.66664 15.6667 5.12571 15.6667 5.70831V10.2916C15.6667 10.8742 15.2077 11.3333 14.6251 11.3333H4.20842C3.62582 11.3333 3.16675 10.8742 3.16675 10.2916V9.24997C3.16672 9.08422 3.10085 8.92527 2.98364 8.80808L2.17554 7.99997L2.98364 7.19187C3.10085 7.07467 3.16672 6.91572 3.16675 6.74997V5.70831C3.16675 5.12571 3.62582 4.66664 4.20842 4.66664ZM5.45842 6.33331C5.3756 6.33214 5.29337 6.34744 5.21651 6.37832C5.13966 6.4092 5.06971 6.45506 5.01073 6.51321C4.95175 6.57136 4.90491 6.64066 4.87294 6.71707C4.84098 6.79348 4.82451 6.87548 4.82451 6.95831C4.82451 7.04114 4.84098 7.12314 4.87294 7.19955C4.90491 7.27596 4.95175 7.34525 5.01073 7.40341C5.06971 7.46156 5.13966 7.50741 5.21651 7.53829C5.29337 7.56918 5.3756 7.58448 5.45842 7.58331H13.3751C13.4579 7.58448 13.5401 7.56918 13.617 7.53829C13.6938 7.50741 13.7638 7.46156 13.8228 7.40341C13.8818 7.34525 13.9286 7.27596 13.9606 7.19955C13.9925 7.12314 14.009 7.04114 14.009 6.95831C14.009 6.87548 13.9925 6.79348 13.9606 6.71707C13.9286 6.64066 13.8818 6.57136 13.8228 6.51321C13.7638 6.45506 13.6938 6.4092 13.617 6.37832C13.5401 6.34744 13.4579 6.33214 13.3751 6.33331H5.45842ZM5.45842 8.41664C5.3756 8.41547 5.29337 8.43077 5.21651 8.46165C5.13966 8.49254 5.06971 8.53839 5.01073 8.59654C4.95175 8.65469 4.90491 8.72399 4.87294 8.8004C4.84098 8.87681 4.82451 8.95881 4.82451 9.04164C4.82451 9.12447 4.84098 9.20647 4.87294 9.28288C4.90491 9.35929 4.95175 9.42859 5.01073 9.48674C5.06971 9.54489 5.13966 9.59074 5.21651 9.62163C5.29337 9.65251 5.3756 9.66781 5.45842 9.66664H10.8751C10.9579 9.66781 11.0401 9.65251 11.117 9.62163C11.1938 9.59074 11.2638 9.54489 11.3228 9.48674C11.3818 9.42859 11.4286 9.35929 11.4606 9.28288C11.4925 9.20647 11.509 9.12447 11.509 9.04164C11.509 8.95881 11.4925 8.87681 11.4606 8.8004C11.4286 8.72399 11.3818 8.65469 11.3228 8.59654C11.2638 8.53839 11.1938 8.49254 11.117 8.46165C11.0401 8.43077 10.9579 8.41547 10.8751 8.41664H5.45842ZM8.99032 13.4077C8.8247 13.4103 8.66688 13.4785 8.55152 13.5974C8.43617 13.7162 8.37271 13.876 8.37508 14.0416V15.2916C8.37391 15.3745 8.38921 15.4567 8.4201 15.5335C8.45098 15.6104 8.49683 15.6803 8.55498 15.7393C8.61314 15.7983 8.68243 15.8451 8.75884 15.8771C8.83525 15.9091 8.91725 15.9255 9.00008 15.9255C9.08291 15.9255 9.16491 15.9091 9.24132 15.8771C9.31773 15.8451 9.38703 15.7983 9.44518 15.7393C9.50333 15.6803 9.54919 15.6104 9.58007 15.5335C9.61095 15.4567 9.62625 15.3745 9.62508 15.2916V14.0416C9.62628 13.958 9.61068 13.8749 9.57919 13.7974C9.54771 13.7199 9.50098 13.6495 9.44179 13.5904C9.38259 13.5313 9.31213 13.4847 9.23458 13.4533C9.15703 13.4219 9.07397 13.4064 8.99032 13.4077ZM13.7852 13.4101C13.6609 13.4102 13.5393 13.4473 13.4361 13.5168C13.333 13.5863 13.2529 13.685 13.2062 13.8003C13.1594 13.9155 13.1481 14.0421 13.1737 14.1638C13.1993 14.2855 13.2606 14.3969 13.3499 14.4835L14.1832 15.3169C14.2408 15.3769 14.3098 15.4247 14.3861 15.4577C14.4624 15.4907 14.5446 15.5081 14.6277 15.509C14.7109 15.5098 14.7933 15.4941 14.8703 15.4627C14.9473 15.4312 15.0173 15.3847 15.0761 15.3259C15.1349 15.2671 15.1813 15.1972 15.2128 15.1202C15.2442 15.0432 15.2599 14.9608 15.2591 14.8776C15.2583 14.7945 15.2408 14.7123 15.2078 14.636C15.1748 14.5597 15.127 14.4907 15.067 14.4331L14.2336 13.5997C14.1754 13.5398 14.1057 13.4921 14.0287 13.4595C13.9516 13.4269 13.8689 13.4101 13.7852 13.4101ZM4.19621 13.4109C4.03389 13.4157 3.87979 13.4834 3.76652 13.5997L2.93319 14.4331C2.87321 14.4907 2.82532 14.5597 2.79233 14.636C2.75934 14.7123 2.74191 14.7945 2.74107 14.8776C2.74022 14.9608 2.75598 15.0432 2.78741 15.1202C2.81884 15.1972 2.86531 15.2671 2.92411 15.3259C2.98291 15.3847 3.05285 15.4312 3.12983 15.4627C3.20682 15.4941 3.2893 15.5098 3.37245 15.509C3.4556 15.5081 3.53775 15.4907 3.61408 15.4577C3.69041 15.4247 3.75939 15.3769 3.81698 15.3169L4.65031 14.4835C4.74048 14.3957 4.80203 14.2827 4.82692 14.1594C4.85181 14.036 4.83888 13.908 4.78981 13.7921C4.74074 13.6762 4.65782 13.5778 4.55191 13.5098C4.44599 13.4418 4.32202 13.4073 4.19621 13.4109Z" fill="white"/>
</svg>
