<svg width="18" height="18" viewBox="0 0 18 18" fill="none" xmlns="http://www.w3.org/2000/svg">
<path d="M7.74996 0.666687C3.84534 0.666687 0.666626 3.84541 0.666626 7.75002C0.666626 11.4049 3.45239 14.4231 7.01103 14.7943C8.01645 16.3221 9.74658 17.3334 11.7083 17.3334C14.8074 17.3334 17.3333 14.8074 17.3333 11.7084C17.3333 9.74664 16.322 8.01651 14.7942 7.01109C14.4231 3.45245 11.4049 0.666687 7.74996 0.666687ZM7.74996 1.91669C10.8256 1.91669 13.329 4.28108 13.5605 7.29592C13.5527 7.36355 13.556 7.43199 13.5703 7.49856C13.5738 7.58262 13.5833 7.66505 13.5833 7.75002C13.5833 10.9791 10.979 13.5834 7.74996 13.5834C7.64245 13.5834 7.53782 13.5728 7.43176 13.5671C7.41417 13.5655 7.39652 13.5647 7.37887 13.5646C4.32468 13.3731 1.91663 10.8537 1.91663 7.75002C1.91663 4.52096 4.52089 1.91669 7.74996 1.91669ZM14.778 8.59556C15.5833 9.387 16.0833 10.4861 16.0833 11.7084C16.0833 14.1318 14.1317 16.0834 11.7083 16.0834C10.486 16.0834 9.38694 15.5834 8.5955 14.778C11.8245 14.3911 14.391 11.8246 14.778 8.59556Z" fill="white" fill-opacity="0.5"/>
</svg>
