<svg width="14" height="20" viewBox="0 0 14 20" fill="none" xmlns="http://www.w3.org/2000/svg">
<path d="M6.98528 -2.2673e-06C6.88544 0.00227445 6.78761 0.0284366 6.69997 0.0762936C6.61232 0.124151 6.53742 0.192309 6.48153 0.275063L0.89234 8.55631L0.887457 8.56282C0.824232 8.63944 0.780178 8.73003 0.758948 8.82707C0.737718 8.92411 0.739923 9.02482 0.76538 9.12084C0.790837 9.21686 0.838813 9.30543 0.905331 9.37921C0.971849 9.45299 1.05499 9.50985 1.14787 9.54508L6.71184 12.43C6.80083 12.4762 6.89964 12.5004 6.99992 12.5004C7.10021 12.5004 7.19902 12.4762 7.28801 12.43L12.8577 9.54183C12.9489 9.50604 13.0303 9.44933 13.0956 9.37626C13.1608 9.3032 13.208 9.21582 13.2332 9.12118C13.2585 9.02655 13.2612 8.9273 13.241 8.83144C13.2209 8.73558 13.1785 8.6458 13.1173 8.56933L7.51832 0.275063C7.45966 0.188198 7.38009 0.11748 7.28695 0.0694137C7.1938 0.0213474 7.09006 -0.00252318 6.98528 -2.2673e-06ZM6.37492 2.66845V6.30289L3.02532 7.63183L6.37492 2.66845ZM7.62492 2.66845L10.9745 7.63183L7.62492 6.30289V2.66845ZM6.37492 7.64811V10.8472L2.87964 9.03401L6.37492 7.64811ZM7.62492 7.64811L11.1202 9.03401L7.62492 10.8472V7.64811ZM12.6331 11.25C12.5346 11.2488 12.4373 11.2708 12.349 11.3143L6.99992 13.9478L1.6508 11.3143C1.52479 11.2525 1.38164 11.2349 1.24441 11.2644C1.10718 11.2938 0.983855 11.3686 0.894298 11.4767C0.804741 11.5847 0.754163 11.7198 0.750707 11.8601C0.747252 12.0004 0.791121 12.1378 0.87525 12.2502L6.45712 19.6924C6.51167 19.7878 6.59044 19.8672 6.68548 19.9225C6.78051 19.9778 6.88845 20.0071 6.9984 20.0073C7.10835 20.0075 7.21642 19.9788 7.31171 19.9239C7.40699 19.8691 7.48612 19.79 7.5411 19.6948L13.1246 12.2502C13.1938 12.1579 13.2362 12.0482 13.247 11.9333C13.2577 11.8185 13.2365 11.7029 13.1856 11.5993C13.1347 11.4958 13.0562 11.4083 12.9586 11.3467C12.8611 11.285 12.7484 11.2516 12.6331 11.25ZM3.44117 13.5889L6.37492 15.0334V17.5L3.44117 13.5889ZM10.5587 13.5889L7.62492 17.5V15.0334L10.5587 13.5889Z" fill="white" fill-opacity="0.5"/>
</svg>
