<svg width="300" height="300" viewBox="0 0 60 30" fill="none" xmlns="http://www.w3.org/2000/svg">
<path d="M33.0806 11.2814H35.8626C35.9386 11.0746 36.0024 10.8618 36.0602 10.6459H33.2782C33.2204 10.8618 33.1566 11.0746 33.0806 11.2814Z" fill="#FFC51A"/>
<path d="M32.9651 5.52272C32.8769 5.30685 32.7796 5.09402 32.6763 4.88727C32.7796 5.09402 32.8769 5.30685 32.9651 5.52272Z" fill="#FFC51A"/>
<path d="M33.397 10.1291H36.1668C36.2094 9.9223 36.2398 9.70947 36.2641 9.49664H33.4851C33.4699 9.70947 33.4304 9.9223 33.397 10.1291Z" fill="#FFC51A"/>
<path d="M30.3198 2.0688C30.0088 1.83426 29.6817 1.62192 29.3408 1.43335V1.43335C29.6817 1.62192 30.0088 1.83426 30.3198 2.0688V2.0688Z" fill="#FFC51A"/>
<path d="M31.551 3.22115C31.3592 2.99916 31.1562 2.78707 30.9429 2.58569V2.58569C31.1562 2.78707 31.3592 2.99916 31.551 3.22115V3.22115Z" fill="#FFC51A"/>
<path d="M33.5183 7.82741H36.2973C36.276 7.61154 36.2487 7.40175 36.2152 7.19196H33.4302C33.4697 7.40175 33.4971 7.61154 33.5183 7.82741Z" fill="#FFC51A"/>
<path d="M31.5512 3.22115H34.3423C34.1505 2.99916 33.9476 2.78707 33.7342 2.58569H30.937C31.1524 2.78692 31.3574 2.99901 31.5512 3.22115Z" fill="#FFC51A"/>
<path d="M33.3297 6.67507H36.1086C36.057 6.4592 35.9992 6.2494 35.9323 6.03961H33.1533C33.2202 6.2494 33.278 6.45311 33.3297 6.67507Z" fill="#FFC51A"/>
<path d="M32.3934 4.37045C32.2597 4.15458 32.1198 3.94175 31.9678 3.73804C32.1198 3.94175 32.2597 4.15458 32.3934 4.37045Z" fill="#FFC51A"/>
<path d="M32.3934 4.37045H35.1724C35.0386 4.15458 34.8988 3.94175 34.7467 3.73804H31.9678C32.1198 3.94175 32.2597 4.15458 32.3934 4.37045Z" fill="#FFC51A"/>
<path d="M33.5516 8.55713C33.5516 8.69699 33.5516 8.83989 33.5516 8.97975H36.3306C36.3306 8.83989 36.3306 8.69699 36.3306 8.55713C36.3306 8.48416 36.3306 8.41423 36.3306 8.3443H33.5516C33.5486 8.41423 33.5516 8.48416 33.5516 8.55713Z" fill="#FFC51A"/>
<path d="M32.9652 5.52272H35.7441C35.656 5.30685 35.5587 5.09402 35.4401 4.88727H32.6611C32.7797 5.09402 32.877 5.30685 32.9652 5.52272Z" fill="#FFC51A"/>
<path d="M29.3409 1.43332L29.1372 1.3269H24.4884C24.0234 1.56685 23.5825 1.85092 23.1719 2.17519H30.469L30.3352 2.06877C30.0193 1.83362 29.687 1.62127 29.3409 1.43332V1.43332Z" fill="#FFC51A"/>
<path d="M33.5186 7.82744C33.4973 7.61157 33.4699 7.40178 33.4365 7.19199C33.4365 7.1555 33.4213 7.12206 33.4152 7.08557H20.2105C20.1588 7.36615 20.1222 7.64933 20.1011 7.93386H33.5247C33.5216 7.89737 33.5216 7.86393 33.5186 7.82744Z" fill="#FFC51A"/>
<path d="M33.5396 8.97972C33.5396 8.83986 33.5396 8.69696 33.5396 8.5571C33.5396 8.48413 33.5396 8.4142 33.5396 8.34427C33.5396 8.27434 33.5396 8.27434 33.5396 8.23785H20.0825C20.0825 8.34427 20.0825 8.45069 20.0825 8.5419C20.0825 8.71825 20.0825 8.89459 20.1038 9.07094H33.5426C33.5335 9.04965 33.5396 9.01317 33.5396 8.97972Z" fill="#FFC51A"/>
<path d="M33.0806 11.2814C33.1566 11.0746 33.2205 10.8618 33.2782 10.6459L33.3056 10.5395H20.3198C20.3919 10.8267 20.4791 11.1099 20.5813 11.3878H33.0472L33.0806 11.2814Z" fill="#FFC51A"/>
<path d="M33.3969 10.129C33.4395 9.92227 33.4699 9.70944 33.4942 9.49661C33.4942 9.46013 33.4942 9.42364 33.4942 9.3902H20.1162C20.1466 9.676 20.1922 9.95876 20.25 10.2354H33.3756C33.3847 10.202 33.3908 10.1655 33.3969 10.129Z" fill="#FFC51A"/>
<path d="M33.3297 6.6751C33.278 6.45923 33.2203 6.24943 33.1534 6.03964L33.1169 5.93323H20.5082C20.4135 6.21139 20.3343 6.49459 20.271 6.78151H33.3449C33.348 6.75719 33.3389 6.71158 33.3297 6.6751Z" fill="#FFC51A"/>
<path d="M32.9648 5.52275C32.8767 5.30688 32.7794 5.09405 32.676 4.8873L32.6213 4.78088H21.0037C20.8612 5.05672 20.7333 5.33987 20.6206 5.62917H33.0074C32.9914 5.59445 32.9772 5.55894 32.9648 5.52275V5.52275Z" fill="#FFC51A"/>
<path d="M31.5512 3.22112C31.3594 2.99913 31.1565 2.78704 30.9431 2.58566L30.8245 2.47925H22.8069C22.511 2.74063 22.2356 3.02422 21.9829 3.32753H31.6424L31.5512 3.22112Z" fill="#FFC51A"/>
<path d="M32.3932 4.37042C32.2594 4.15455 32.1196 3.94172 31.9675 3.73801L31.8885 3.63159H21.7395C21.533 3.90154 21.3431 4.18381 21.1709 4.47684H32.454C32.432 4.44241 32.4117 4.40689 32.3932 4.37042Z" fill="#FFC51A"/>
<path d="M25.1509 1.02286H28.4741L28.2187 0.922521H28.2035C27.752 0.759499 27.287 0.636396 26.814 0.554626C26.2447 0.651899 25.6873 0.808841 25.1509 1.02286V1.02286Z" fill="#FFC51A"/>
<path d="M30.6938 14.7384H33.4728C33.7065 14.5392 33.9288 14.327 34.1387 14.1029H31.3627C31.1519 14.3271 30.9286 14.5392 30.6938 14.7384Z" fill="#FFC51A"/>
<path d="M32.5669 12.4337H35.3459C35.4584 12.2269 35.5617 12.0141 35.6499 11.7982H32.8709C32.7828 12.0141 32.6794 12.23 32.5669 12.4337Z" fill="#FFC51A"/>
<path d="M28.9331 15.8785C29.0547 15.8177 29.1763 15.7569 29.298 15.69C29.1733 15.7691 29.0547 15.8299 28.9331 15.8785Z" fill="#FFC51A"/>
<path d="M31.8066 13.586H34.5856C34.7468 13.3823 34.8897 13.1695 35.0386 12.9506H32.2597C32.1168 13.1695 31.9678 13.3823 31.8066 13.586Z" fill="#FFC51A"/>
<path d="M30.6939 14.7383C30.9276 14.5391 31.1499 14.327 31.3598 14.1029C31.3932 14.0664 31.4267 14.0329 31.4571 13.9965H22.1807C22.4554 14.3006 22.7521 14.5841 23.0685 14.8447H30.5723L30.6939 14.7383Z" fill="#FFC51A"/>
<path d="M28.9336 15.8785C29.0552 15.8177 29.1768 15.7569 29.2984 15.69C29.5475 15.5622 29.79 15.4222 30.0251 15.2704L30.1771 15.164H23.4517C23.9133 15.4975 24.4085 15.7818 24.9293 16.0123H28.6964L28.9336 15.8785Z" fill="#FFC51A"/>
<path d="M31.8066 13.586C31.9678 13.3823 32.1107 13.1695 32.2597 12.9506L32.3265 12.8442H21.2988C21.4827 13.14 21.6858 13.4233 21.9069 13.6925H31.7245L31.8066 13.586Z" fill="#FFC51A"/>
<path d="M32.5665 12.4337C32.679 12.227 32.7823 12.0141 32.8705 11.7982L32.9161 11.6918H20.7026C20.8243 11.9827 20.9634 12.266 21.1192 12.5401H32.5178C32.5178 12.5036 32.5482 12.4702 32.5665 12.4337Z" fill="#FFC51A"/>
<path d="M29.298 15.7022C29.1763 15.7691 29.0547 15.8299 28.9331 15.8907H31.7121C32.0909 15.7057 32.4557 15.4934 32.8036 15.2552H30.0246C29.7901 15.4164 29.5475 15.5655 29.298 15.7022Z" fill="#FFC51A"/>
<path d="M33.0806 11.2814C33.1566 11.0746 33.2204 10.8618 33.2782 10.6459C33.2204 10.8618 33.1566 11.0746 33.0806 11.2814Z" fill="#FFC51A"/>
<path d="M33.5181 7.82741C33.4968 7.61154 33.4695 7.40175 33.436 7.19196C33.4695 7.40175 33.4968 7.61154 33.5181 7.82741Z" fill="#FFC51A"/>
<path d="M27.8964 16.3011H25.7285C26.0843 16.4118 26.4468 16.4992 26.814 16.5626C27.0572 16.5201 27.2944 16.4684 27.5315 16.4076L27.8964 16.3011Z" fill="#FFC51A"/>
<path d="M26.814 16.5626C27.2727 16.6433 27.7376 16.684 28.2034 16.6842C28.9148 16.6841 29.6232 16.5911 30.3105 16.4075H27.5315C27.2944 16.4683 27.045 16.52 26.814 16.5626Z" fill="#FFC51A"/>
<path d="M32.5669 12.4337C32.6794 12.2269 32.7828 12.0141 32.8709 11.7982C32.7828 12.0141 32.6794 12.23 32.5669 12.4337Z" fill="#FFC51A"/>
<path d="M33.397 10.1291C33.4395 9.9223 33.4699 9.70947 33.4943 9.49664C33.4699 9.70947 33.4304 9.9223 33.397 10.1291Z" fill="#FFC51A"/>
<path d="M31.8066 13.586C31.9678 13.3823 32.1107 13.1695 32.2597 12.9506C32.1168 13.1695 31.9678 13.3823 31.8066 13.586Z" fill="#FFC51A"/>
<path d="M33.5516 8.55713C33.5516 8.69699 33.5516 8.83989 33.5516 8.97975C33.5516 8.83989 33.5516 8.69699 33.5516 8.55713C33.5516 8.48416 33.5516 8.41423 33.5516 8.3443C33.5486 8.41423 33.5516 8.48416 33.5516 8.55713Z" fill="#FFC51A"/>
<path d="M30.998 0.916457C30.1075 0.591823 29.1669 0.426135 28.2191 0.426944C27.7533 0.428642 27.2885 0.469324 26.8296 0.548562C27.3026 0.630332 27.7676 0.753435 28.2191 0.916457H30.998Z" fill="#FFC51A"/>
<path d="M30.6938 14.7384C30.9275 14.5392 31.1498 14.327 31.3597 14.1029V14.1029C31.1498 14.327 30.9275 14.5392 30.6938 14.7384V14.7384Z" fill="#FFC51A"/>
<path d="M30.3198 2.0688H33.0988C32.7878 1.83426 32.4607 1.62192 32.1198 1.43335H29.3408C29.6817 1.62192 30.0088 1.83426 30.3198 2.0688V2.0688Z" fill="#FFC51A"/>
<path d="M33.3297 6.67507C33.278 6.4592 33.2202 6.2494 33.1533 6.03961C33.2202 6.2494 33.278 6.45311 33.3297 6.67507Z" fill="#FFC51A"/>
<path d="M29.2983 15.7022C29.5476 15.5705 29.7901 15.4264 30.025 15.2704V15.2704C29.7901 15.4264 29.5476 15.5705 29.2983 15.7022Z" fill="#FFC51A"/>
<path d="M28.2034 0.916478C27.7519 0.753457 27.287 0.630354 26.814 0.548584C27.287 0.630354 27.7519 0.753457 28.2034 0.916478V0.916478Z" fill="#FFC51A"/>
<path d="M28.4743 1.02289H25.1511C24.9231 1.1141 24.7042 1.21748 24.4883 1.32693H29.1371C28.9213 1.21748 28.7023 1.1141 28.4743 1.02289Z" fill="#211F20"/>
<path d="M30.4534 2.17523H23.1564C23.0317 2.27253 22.9101 2.37286 22.7915 2.47928H30.8031C30.6936 2.37286 30.5781 2.27253 30.4534 2.17523Z" fill="#211F20"/>
<path d="M31.6425 3.32758H21.983C21.8978 3.42487 21.8188 3.52825 21.7397 3.63162H31.8888C31.8097 3.52825 31.7276 3.41271 31.6425 3.32758Z" fill="#211F20"/>
<path d="M32.4542 4.47681H21.1711C21.1134 4.57714 21.0586 4.68052 21.0039 4.78085H32.6215C32.5667 4.68052 32.5181 4.57714 32.4542 4.47681Z" fill="#211F20"/>
<path d="M33.0076 5.62915H20.6208C20.5813 5.72949 20.5448 5.83286 20.5083 5.9332H33.1262L33.0076 5.62915Z" fill="#211F20"/>
<path d="M33.354 6.78149H20.28C20.2588 6.88183 20.2375 6.9852 20.2192 7.08554H33.43C33.3965 6.9852 33.3783 6.88183 33.354 6.78149Z" fill="#211F20"/>
<path d="M33.5244 7.93384H20.1008C20.1008 8.03417 20.1008 8.13451 20.0825 8.23788H33.5426C33.5396 8.13451 33.5335 8.03417 33.5244 7.93384Z" fill="#211F20"/>
<path d="M33.5335 9.08618H20.0947C20.0947 9.18652 20.0947 9.28989 20.116 9.39023H33.5092C33.5183 9.28989 33.5244 9.18956 33.5335 9.08618Z" fill="#211F20"/>
<path d="M33.3756 10.2355H20.25C20.2713 10.3388 20.2956 10.4392 20.3199 10.5395H33.3057C33.33 10.4392 33.3543 10.3388 33.3756 10.2355Z" fill="#211F20"/>
<path d="M33.044 11.3878H20.5781C20.6177 11.4911 20.6572 11.5915 20.6997 11.6918H32.9193C32.9649 11.5915 33.0044 11.4911 33.044 11.3878Z" fill="#211F20"/>
<path d="M32.5183 12.5341H21.1196C21.1774 12.6374 21.2352 12.7378 21.299 12.8381H32.3267C32.3906 12.7438 32.4483 12.6435 32.5183 12.5341Z" fill="#211F20"/>
<path d="M31.7214 13.6924H21.9038C21.9889 13.7958 22.0741 13.8962 22.1653 13.9965H31.4599C31.5512 13.8962 31.6363 13.7958 31.7214 13.6924Z" fill="#211F20"/>
<path d="M30.5723 14.8448H23.0532C23.1809 14.9482 23.3147 15.0515 23.4515 15.1488H30.177C30.3108 15.0515 30.4446 14.9482 30.5723 14.8448Z" fill="#211F20"/>
<path d="M24.917 15.9971C25.1785 16.1096 25.443 16.213 25.7166 16.3012H27.8845L28.2068 16.1917C28.3679 16.1309 28.5108 16.064 28.6841 15.9971H24.917Z" fill="#211F20"/>
<path d="M28.2188 0.922523L28.4742 1.02286C28.7022 1.11407 28.9212 1.21745 29.137 1.3269L29.3407 1.43332H32.1197C31.7547 1.23163 31.3745 1.05881 30.9826 0.916443H28.2036L28.2188 0.922523Z" fill="#211F20"/>
<path d="M29.3409 1.43332L29.1372 1.3269L29.3409 1.43332Z" fill="#211F20"/>
<path d="M28.4741 1.02288L28.2188 0.922546L28.4741 1.02288Z" fill="#211F20"/>
<path d="M29.1369 1.32693C28.9211 1.21748 28.7022 1.1141 28.4741 1.02289C28.7022 1.1141 28.9211 1.21748 29.1369 1.32693Z" fill="#211F20"/>
<path d="M30.4538 2.1752C30.5784 2.2725 30.7 2.37283 30.8186 2.47925L30.9372 2.58566H33.7162C33.5185 2.40324 33.3118 2.22993 33.1081 2.06879H30.3291L30.4538 2.1752Z" fill="#211F20"/>
<path d="M30.4536 2.1752L30.3198 2.06879L30.4536 2.1752Z" fill="#211F20"/>
<path d="M30.9369 2.58566L30.8184 2.47925L30.9369 2.58566Z" fill="#211F20"/>
<path d="M30.8185 2.47928C30.6999 2.37286 30.5783 2.27253 30.4536 2.17523C30.5783 2.27253 30.6938 2.37286 30.8185 2.47928Z" fill="#211F20"/>
<path d="M31.9677 3.73801L31.8887 3.63159L31.9677 3.73801Z" fill="#211F20"/>
<path d="M31.6425 3.32755L31.5513 3.22113L31.6425 3.32755Z" fill="#211F20"/>
<path d="M31.6425 3.32755C31.7276 3.42484 31.8097 3.52822 31.8888 3.63159L31.9678 3.73801H34.7468C34.616 3.55862 34.4762 3.38836 34.3302 3.22113H31.5513L31.6425 3.32755Z" fill="#211F20"/>
<path d="M31.8889 3.63162C31.8098 3.52825 31.7277 3.42487 31.6426 3.32758C31.7277 3.41271 31.8098 3.52825 31.8889 3.63162Z" fill="#211F20"/>
<path d="M32.6763 4.8873L32.6216 4.78088L32.6763 4.8873Z" fill="#211F20"/>
<path d="M32.4544 4.47684C32.4323 4.44241 32.412 4.40689 32.3936 4.37042C32.412 4.40689 32.4323 4.44241 32.4544 4.47684Z" fill="#211F20"/>
<path d="M32.4544 4.47684C32.5121 4.57717 32.5669 4.68055 32.6216 4.78088L32.6763 4.8873H35.4553C35.3671 4.71399 35.2729 4.54069 35.1725 4.37042H32.3936C32.412 4.40689 32.4323 4.44241 32.4544 4.47684Z" fill="#211F20"/>
<path d="M32.6213 4.78085C32.5666 4.68052 32.5119 4.57714 32.4541 4.47681C32.518 4.57714 32.5666 4.68052 32.6213 4.78085Z" fill="#211F20"/>
<path d="M33.1537 6.03964L33.1172 5.93323L33.1537 6.03964Z" fill="#211F20"/>
<path d="M33.0074 5.62918C32.9914 5.59447 32.9772 5.55895 32.9648 5.52277C32.9772 5.55895 32.9914 5.59447 33.0074 5.62918Z" fill="#211F20"/>
<path d="M33.0074 5.62918L33.1169 5.93323L33.1534 6.03964H35.9323C35.8746 5.86634 35.8107 5.69303 35.7438 5.52277H32.9648C32.9772 5.55895 32.9914 5.59447 33.0074 5.62918Z" fill="#211F20"/>
<path d="M33.1261 5.9332L33.0166 5.62915L33.1261 5.9332Z" fill="#211F20"/>
<path d="M33.3544 6.78153C33.3787 6.88186 33.397 6.98524 33.4152 7.08557C33.4152 7.12206 33.4304 7.1555 33.4365 7.19199H36.2155C36.1851 7.01868 36.1486 6.84538 36.109 6.67511H33.3301C33.3392 6.7116 33.3483 6.7572 33.3544 6.78153Z" fill="#211F20"/>
<path d="M33.43 7.19199C33.43 7.1555 33.4148 7.12206 33.4087 7.08557C33.43 7.12206 33.43 7.1555 33.43 7.19199Z" fill="#211F20"/>
<path d="M33.3544 6.78153C33.3544 6.74504 33.3392 6.7116 33.3301 6.67511C33.3392 6.7116 33.3483 6.7572 33.3544 6.78153Z" fill="#211F20"/>
<path d="M33.4304 7.08554C33.4122 6.9852 33.394 6.88183 33.3696 6.78149C33.3788 6.88183 33.397 6.9852 33.4304 7.08554Z" fill="#211F20"/>
<path d="M33.5243 7.93381C33.5243 7.89732 33.5243 7.86388 33.5243 7.82739C33.5212 7.86388 33.5212 7.89732 33.5243 7.93381Z" fill="#211F20"/>
<path d="M33.5243 7.93381C33.5243 8.03415 33.5395 8.13448 33.5425 8.23786C33.5425 8.27434 33.5425 8.30779 33.5425 8.34427H36.3215C36.3215 8.17096 36.3215 7.99766 36.2941 7.82739H33.5151C33.5212 7.86388 33.5212 7.89732 33.5243 7.93381Z" fill="#211F20"/>
<path d="M33.5427 8.23788C33.5427 8.13451 33.5427 8.03417 33.5244 7.93384C33.5335 8.03417 33.5396 8.13451 33.5427 8.23788Z" fill="#211F20"/>
<path d="M33.4941 9.49356C33.4941 9.45708 33.4941 9.42059 33.4941 9.38715C33.5063 9.42363 33.5002 9.46012 33.4941 9.49356Z" fill="#211F20"/>
<path d="M33.5337 9.08615C33.5337 9.04967 33.5337 9.01318 33.5337 8.97974C33.5398 9.01318 33.5337 9.04967 33.5337 9.08615Z" fill="#211F20"/>
<path d="M33.5336 9.08615C33.5336 9.18649 33.5184 9.28986 33.5093 9.3902C33.5093 9.42364 33.5093 9.46013 33.5093 9.49661H36.2882C36.3095 9.32331 36.3247 9.15304 36.3339 8.97974H33.5549C33.5397 9.01318 33.5336 9.04967 33.5336 9.08615Z" fill="#211F20"/>
<path d="M33.5093 9.39023C33.5093 9.28989 33.5245 9.18652 33.5336 9.08618C33.5245 9.18956 33.5184 9.28989 33.5093 9.39023Z" fill="#211F20"/>
<path d="M33.3756 10.2354C33.3543 10.3388 33.33 10.4392 33.3057 10.5395L33.2783 10.6459H36.0573C36.1029 10.4787 36.1424 10.3054 36.1759 10.129H33.3969C33.3908 10.1655 33.3847 10.202 33.3756 10.2354Z" fill="#211F20"/>
<path d="M33.2783 10.6459L33.3057 10.5395L33.2783 10.6459Z" fill="#211F20"/>
<path d="M33.3755 10.2354C33.3755 10.202 33.3907 10.1655 33.3968 10.129C33.3907 10.1655 33.3846 10.202 33.3755 10.2354Z" fill="#211F20"/>
<path d="M33.3057 10.5395C33.33 10.4392 33.3543 10.3388 33.3756 10.2355C33.3543 10.3388 33.33 10.4392 33.3057 10.5395Z" fill="#211F20"/>
<path d="M33.0439 11.3878L33.0804 11.2814L33.0439 11.3878Z" fill="#211F20"/>
<path d="M33.0442 11.3878C33.0047 11.4912 32.9651 11.5915 32.9226 11.6918L32.877 11.7982H35.6559C35.7289 11.631 35.7988 11.4577 35.8596 11.2814H33.0807L33.0442 11.3878Z" fill="#211F20"/>
<path d="M32.877 11.7982L32.9226 11.6918L32.877 11.7982Z" fill="#211F20"/>
<path d="M32.9224 11.6918C32.9649 11.5915 33.0045 11.4911 33.044 11.3878C33.0045 11.4911 32.9649 11.5915 32.9224 11.6918Z" fill="#211F20"/>
<path d="M32.5182 12.534C32.4605 12.6374 32.4027 12.7377 32.3389 12.8381L32.272 12.9445H35.0509C35.1574 12.7773 35.2638 12.604 35.355 12.4276H32.576C32.5487 12.4702 32.5182 12.5036 32.5182 12.534Z" fill="#211F20"/>
<path d="M32.2598 12.9506L32.3267 12.8442L32.2598 12.9506Z" fill="#211F20"/>
<path d="M32.5181 12.534C32.5393 12.4975 32.5606 12.4641 32.5789 12.4276C32.5485 12.4702 32.5181 12.5036 32.5181 12.534Z" fill="#211F20"/>
<path d="M32.3267 12.8381C32.3905 12.7378 32.4483 12.6374 32.5061 12.5341C32.4483 12.6435 32.3905 12.7438 32.3267 12.8381Z" fill="#211F20"/>
<path d="M31.7217 13.6924L31.8068 13.586L31.7217 13.6924Z" fill="#211F20"/>
<path d="M31.3628 14.1029C31.3962 14.0664 31.4297 14.0329 31.4601 13.9965C31.4297 14.0329 31.3962 14.0542 31.3628 14.1029Z" fill="#211F20"/>
<path d="M31.7216 13.6924C31.6364 13.7958 31.5513 13.8961 31.4601 13.9965C31.4297 14.0329 31.3962 14.0664 31.3628 14.1029H34.1418C34.2968 13.9357 34.4458 13.7654 34.5857 13.586H31.8067L31.7216 13.6924Z" fill="#211F20"/>
<path d="M31.46 13.9965C31.5512 13.8962 31.6363 13.7958 31.7214 13.6924C31.6363 13.7958 31.5512 13.8962 31.46 13.9965Z" fill="#211F20"/>
<path d="M30.5723 14.8448L30.6969 14.7383L30.5723 14.8448Z" fill="#211F20"/>
<path d="M30.5722 14.8448C30.4445 14.9481 30.3107 15.0515 30.1769 15.1488L30.0249 15.2552H32.8039C33.0368 15.0949 33.2611 14.9223 33.4758 14.7383H30.6938L30.5722 14.8448Z" fill="#211F20"/>
<path d="M30.0249 15.2704L30.1769 15.164L30.0249 15.2704Z" fill="#211F20"/>
<path d="M30.1768 15.1488C30.3105 15.0515 30.4443 14.9482 30.572 14.8448C30.4443 14.9482 30.3105 15.0515 30.1768 15.1488Z" fill="#211F20"/>
<path d="M28.6963 15.9971L28.9334 15.8907L28.6963 15.9971Z" fill="#211F20"/>
<path d="M31.7124 15.8785H28.9334L28.6962 15.985C28.5381 16.0518 28.3922 16.1187 28.2189 16.1795L27.8966 16.289L27.5317 16.3954H30.3107C30.7927 16.2661 31.2618 16.0931 31.7124 15.8785V15.8785Z" fill="#211F20"/>
<path d="M28.2188 16.1826C28.3799 16.1218 28.5228 16.0549 28.6961 15.988C28.538 16.064 28.3799 16.1309 28.2188 16.1826Z" fill="#211F20"/>
<path d="M16.8079 0.138717V16.3224H15.1664V3.37546L8.80856 14.2648H7.99938L1.64149 3.44482V16.3224H0V0.138717H1.41029L8.43865 12.1378L15.3976 0.138717H16.8079Z" fill="#F8F9FA"/>
<path d="M47.3081 16.4611C45.7051 16.4611 44.2486 16.1066 42.9385 15.3976C41.6438 14.6732 40.6265 13.6868 39.8867 12.4383C39.1623 11.1899 38.8001 9.78729 38.8001 8.23057C38.8001 6.67385 39.1623 5.27127 39.8867 4.02281C40.6265 2.77435 41.6438 1.79562 42.9385 1.08662C44.2486 0.362207 45.7051 0 47.3081 0C48.911 0 50.3522 0.3545 51.6314 1.0635C52.9261 1.7725 53.9434 2.75894 54.6832 4.02281C55.4231 5.27127 55.793 6.67385 55.793 8.23057C55.793 9.78729 55.4231 11.1976 54.6832 12.4615C53.9434 13.7099 52.9261 14.6886 51.6314 15.3976C50.3522 16.1066 48.911 16.4611 47.3081 16.4611ZM47.3081 14.9353C48.5874 14.9353 49.7433 14.6501 50.776 14.0798C51.8087 13.4941 52.6179 12.6927 53.2036 11.6754C53.7893 10.6427 54.0821 9.49444 54.0821 8.23057C54.0821 6.9667 53.7893 5.82614 53.2036 4.80887C52.6179 3.7762 51.8087 2.97472 50.776 2.40444C49.7433 1.81874 48.5874 1.52589 47.3081 1.52589C46.0288 1.52589 44.8651 1.81874 43.817 2.40444C42.7844 2.97472 41.9675 3.7762 41.3664 4.80887C40.7807 5.82614 40.4878 6.9667 40.4878 8.23057C40.4878 9.49444 40.7807 10.6427 41.3664 11.6754C41.9675 12.6927 42.7844 13.4941 43.817 14.0798C44.8651 14.6501 46.0288 14.9353 47.3081 14.9353Z" fill="#F8F9FA"/>
<path d="M73.1527 0.138717V16.3224H71.7424L61.3386 3.1905V16.3224H59.6278V0.138717H61.038L71.465 13.2706V0.138717H73.1527Z" fill="#F8F9FA"/>
<path d="M89.8792 14.8428V16.3224H78.435V0.138717H89.5324V1.61837H80.1459V7.37515H88.5151V8.83168H80.1459V14.8428H89.8792Z" fill="#F8F9FA"/>
<path d="M97.045 1.61837H91.3576V0.138717H104.443V1.61837H98.7559V16.3224H97.045V1.61837Z" fill="#F8F9FA"/>
<path d="M118.228 16.3224L114.528 11.1205C114.112 11.1668 113.681 11.1899 113.234 11.1899H108.887V16.3224H107.176V0.138717H113.234C115.299 0.138717 116.917 0.631935 118.089 1.61837C119.26 2.60481 119.846 3.96116 119.846 5.68742C119.846 6.95129 119.522 8.0225 118.875 8.90104C118.243 9.76417 117.334 10.3884 116.147 10.7737L120.1 16.3224H118.228ZM113.188 9.73335C114.79 9.73335 116.016 9.37885 116.864 8.66984C117.711 7.96084 118.135 6.9667 118.135 5.68742C118.135 4.37731 117.711 3.37546 116.864 2.68187C116.016 1.97287 114.79 1.61837 113.188 1.61837H108.887V9.73335H113.188Z" fill="#F8F9FA"/>
<path d="M123.884 0.138717H125.595V16.3224H123.884V0.138717Z" fill="#F8F9FA"/>
<path d="M137.889 16.4611C136.286 16.4611 134.837 16.1066 133.542 15.3976C132.263 14.6886 131.253 13.7099 130.514 12.4615C129.789 11.1976 129.427 9.78729 129.427 8.23057C129.427 6.67385 129.789 5.27127 130.514 4.02281C131.253 2.75894 132.271 1.7725 133.565 1.0635C134.86 0.3545 136.309 0 137.912 0C139.114 0 140.224 0.20037 141.241 0.60111C142.258 1.00185 143.122 1.58754 143.831 2.3582L142.744 3.44482C141.48 2.16553 139.885 1.52589 137.958 1.52589C136.679 1.52589 135.515 1.81874 134.467 2.40444C133.419 2.99013 132.594 3.79161 131.993 4.80887C131.408 5.82614 131.115 6.9667 131.115 8.23057C131.115 9.49444 131.408 10.635 131.993 11.6523C132.594 12.6695 133.419 13.471 134.467 14.0567C135.515 14.6424 136.679 14.9353 137.958 14.9353C139.9 14.9353 141.495 14.2879 142.744 12.9932L143.831 14.0798C143.122 14.8505 142.251 15.4439 141.218 15.86C140.201 16.2608 139.091 16.4611 137.889 16.4611Z" fill="#F8F9FA"/>
<path d="M157.221 11.9991H148.204L146.262 16.3224H144.482L151.88 0.138717H153.568L160.966 16.3224H159.163L157.221 11.9991ZM156.597 10.6119L152.712 1.91893L148.828 10.6119H156.597Z" fill="#F8F9FA"/>
</svg>
